<svg xmlns="http://www.w3.org/2000/svg" data-name="Layer 1" height="100" width="125" viewBox="0 0 60 60" x="0px" y="0px"><path d="M60.99481,97.85132a.979.979,0,0,1,1.1604.859,1.13243,1.13243,0,0,1-.00635.296,1.64972,1.64972,0,0,1,1.13361.37738A1.24423,1.24423,0,0,1,63.676,100H59.227a3.83079,3.83079,0,0,1,.41083-1.15253A1.89615,1.89615,0,0,1,60.99481,97.85132Z"/><path d="M82.132,96.10754a3.48846,3.48846,0,0,1,2.00812-1.22064,1.60355,1.60355,0,0,1,1.85351.44928,2.3677,2.3677,0,0,1-.05218,2.147,3.6606,3.6606,0,0,1-1.40082,1.64832A11.167,11.167,0,0,1,82.5932,100H80.85638a11.63729,11.63729,0,0,0,.56977-1.82977A5.4616,5.4616,0,0,1,82.132,96.10754Z"/><path d="M76.91333,98.4046A7.443,7.443,0,0,1,75.506,97.05566a5.28344,5.28344,0,0,1-.65722-1.35382,7.48237,7.48237,0,0,1-2.16547-.49267,3.42152,3.42152,0,0,1-.64478-.36792,3.8635,3.8635,0,0,1-1.389-2.60651,1.0585,1.0585,0,0,1,.23358-.91711.82778.82778,0,0,1,.28735-.18763,2.40128,2.40128,0,0,1,1.37335-.00329,3.84221,3.84221,0,0,1,2.2392,1.479,2.9955,2.9955,0,0,1,.44226.90955,3.75049,3.75049,0,0,1-.038,2.06958c.0506.13183.10125.26361.15027.38983a3.65952,3.65952,0,0,0,.6463,1.10657,7.9447,7.9447,0,0,0,.93176.8706,16.81991,16.81991,0,0,1,1.659,1.41614,42.75787,42.75787,0,0,0-.17347-7.426,3.01072,3.01072,0,0,1-1.70654-.99292,4.22113,4.22113,0,0,1-.59851-.90064,3.28877,3.28877,0,0,1-.35406-.984,1.084,1.084,0,0,1,.21856-.86389.73723.73723,0,0,1,.77191-.24341,1.11178,1.11178,0,0,1,.59131.45679,1.83314,1.83314,0,0,1,.38367-1.00971,1.26271,1.26271,0,0,1,1.53906-.357,1.30424,1.30424,0,0,1,.61981,1.12042A1.70764,1.70764,0,0,1,80.9082,87.76a1.65256,1.65256,0,0,1,1.38874.76184,1.24867,1.24867,0,0,1,.22058.88251,1.38642,1.38642,0,0,1-.40943.71185,8.92505,8.92505,0,0,1-3.34924,1.83759c.02722.2608.056.52728.07758.78979a41.19861,41.19861,0,0,1,.0672,6.99878c-.00123.03241-.01081.13641-.02259.25763h-.3623c.00482-.05054.01434-.1004.01892-.15094A10.411,10.411,0,0,0,76.91333,98.4046Z"/><path d="M71.49371,97.645a1.54858,1.54858,0,0,1,.60273-1.15918.82886.82886,0,0,1,.24188-.11328,1.01394,1.01394,0,0,1,.91388.22229,6.02,6.02,0,0,1,.96014,1.05176,5.33161,5.33161,0,0,1,.7713,1.28393A3.34464,3.34464,0,0,1,75.21674,100H72.10767a3.32014,3.32014,0,0,1-.63794-2.01825A2.30346,2.30346,0,0,1,71.49371,97.645Z"/><path d="M.51947,39.41663a1.15041,1.15041,0,0,1-.11462.84173A3.00959,3.00959,0,0,1,0,40.90118V38.88226A.93791.93791,0,0,1,.51947,39.41663Z"/><path d="M38.74072,15.39771a3.18855,3.18855,0,0,1-1.02783.29608,1.96419,1.96419,0,0,1-.87707-.14527,7.539,7.539,0,0,1-1.10608-.54748c-.35193-.20667-.69269-.43012-1.03345-.65918-.20111-.134-.40222-.2793-.6145-.40216a19.52071,19.52071,0,0,1-1.67591,1.78759,31.69315,31.69315,0,0,1-3.97741,3.13947c-.29047.19556-.581.37988-.87146.56982a34.31463,34.31463,0,0,1-3.34619,1.86579,41.82271,41.82271,0,0,1-2.5976,3.363c-.95526,1.12842-1.84351,2.30713-2.77081,3.45789.76532-.39661,1.53064-.78766,2.30151-1.16193.28491-.13964.57544-.27929.86591-.41339a.12969.12969,0,0,1,.10614-.05029,35.32757,35.32757,0,0,1,4.26233-1.67584c.14526-.04474.28491-.08942.43011-.12848a6.23072,6.23072,0,0,1-.02234-1.20667,7.7926,7.7926,0,0,1,.17877-1.24572,1.85865,1.85865,0,0,1,.648-1.04468,3.22737,3.22737,0,0,1,.81-.43012c.095-.03912.19556-.07263.29053-.11175a.152.152,0,0,1,.18994.13409,4.00132,4.00132,0,0,1-.36871,2.58643,5.29979,5.29979,0,0,1-.92176,1.08935,17.28964,17.28964,0,0,1,3.88251-.63684.04164.04164,0,0,1-.00561-.028,4.51218,4.51218,0,0,1,.905-2.67023,4.17992,4.17992,0,0,1,1.63123-1.50268c.30164-.14527.7262-.27375.99994,0a.76587.76587,0,0,1,.02789.86029,5.23091,5.23091,0,0,1-.57538.95526,2.55787,2.55787,0,0,1,.98877-.22345,2.72638,2.72638,0,0,1,.79328.11731,1.44852,1.44852,0,0,1,.6983.391.60562.60562,0,0,1,.04468.75415,1.62537,1.62537,0,0,1-.6145.49719,1.5713,1.5713,0,0,1,1.18432.86591,1.43337,1.43337,0,0,1-.75415,1.62,2.85269,2.85269,0,0,1-1.82672.34638,4.84555,4.84555,0,0,1-1.73737-.62567,17.06338,17.06338,0,0,1-1.6535-1.03907.11972.11972,0,0,1-.028-.02234,15.12036,15.12036,0,0,0-2.78754.3631,28.86216,28.86216,0,0,0-5.20642,1.67591q-.4358.18429-.87146.38543a6.74913,6.74913,0,0,1,3.80426,1.92725.1533.1533,0,0,1-.06146.2514,4.725,4.725,0,0,1-2.93842-.15082,3.69919,3.69919,0,0,1-1.27368-.75976,1.16537,1.16537,0,0,1-.36865-.88263c-1.17316.55865-2.32947,1.162-3.49146,1.75409-.5307.648-1.07812,1.2793-1.63678,1.905a15.5,15.5,0,0,0-1.41888,2.07806q-1.39938,2.23737-2.64233,4.564c-.22907.42456-.45252.85467-.676,1.2904.553-.324,1.12286-.62,1.69824-.8938a29.509,29.509,0,0,1,8.11127-2.55853,3.8381,3.8381,0,0,1,.12854-1.63116,2.22345,2.22345,0,0,1,.944-1.296,1.37761,1.37761,0,0,1,.80444-.22907c.28492.02234.53632.18439.46924.50281a2.13533,2.13533,0,0,1-.30163.648,3.30007,3.30007,0,0,1,.58654-.27936.94808.94808,0,0,1,1.17316.29053.93689.93689,0,0,1-.37433,1.12842,2.70821,2.70821,0,0,1,.94971.63684.86161.86161,0,0,1-.82123,1.48034,7.9299,7.9299,0,0,1-1.02228-.15643.75746.75746,0,0,1,.16761.22345,1.039,1.039,0,0,1-.40778,1.38544,1.44289,1.44289,0,0,1-1.56976-.50836,3.48206,3.48206,0,0,1-.72626-1.85468v-.04468c-.63123.10059-1.2569.22907-1.88257.37989a30.85833,30.85833,0,0,0-4.307,1.36865A24.76974,24.76974,0,0,0,11.759,39.01093a59.17618,59.17618,0,0,0-3.32385,7.85992A52.64421,52.64421,0,0,0,5.98279,61.84766c-.00562.18994-.29053.49719-.27374.31286.03912-.43017.324-5.7539.37426-6.17846A45.97351,45.97351,0,0,1,8.53571,45.681c.3966-1.10053.83233-2.18427,1.296-3.25684v-.02234a8.258,8.258,0,0,0-.49158-3.9942A15.24263,15.24263,0,0,0,8.52454,36.782a3.21121,3.21121,0,0,1-.3017-.79321.17336.17336,0,0,1-.067-.0838c-.01117-.03351-.02789-.07263-.03912-.11176a5.93407,5.93407,0,0,1-1.74292,1.34632,5.85667,5.85667,0,0,1-.99432.3966,2.10442,2.10442,0,0,1-1.12842.095.98121.98121,0,0,1-.69275-.62005,1.08058,1.08058,0,0,1,.12854-.87708,2.36868,2.36868,0,0,1,1.86023-.84912c.04468-.00555.095-.00555.13965-.01117a.05074.05074,0,0,1-.028-.00555,9.60792,9.60792,0,0,1-2.16748-.5307c-.65918-.26258-1.73175-.92731-1.46918-1.78205a.87305.87305,0,0,1,.60889-.62567,1.80187,1.80187,0,0,1,.98322.10614c.0838.028.17315.06146.257.095A1.20873,1.20873,0,0,1,3.765,31.48059a1.36464,1.36464,0,0,1,1.16755-.7597,1.72074,1.72074,0,0,1,1.363.49719,3.81343,3.81343,0,0,1,.73181,1.10608,2.999,2.999,0,0,1,.12848-1.5083,1.6474,1.6474,0,0,1,1.1955-.99439,1.082,1.082,0,0,1,.77087.19556.92372.92372,0,0,1,.35755.73175,4.57681,4.57681,0,0,1-.12293,1.02789q-.10052.56984-.25134,1.12287c-.18994.70385-.49719,1.37982-.62567,2.09484a2.231,2.231,0,0,0,.03906,1.01673,4.03737,4.03737,0,0,0,.40784.8938,10.22,10.22,0,0,1,.81,1.7373,8.46791,8.46791,0,0,1,.44689,2.9831c.419-.93293.86585-1.86023,1.324-2.77637l.00555-.00562c.45807-.91058.93848-1.80993,1.43012-2.70373q.65359-1.16473,1.32953-2.31275c.44128-.743.91613-1.46362,1.35748-2.2066.03906-.067.07819-.12848.11731-.18988,0-.01117-.00562-.0224-.00562-.03357a9.29729,9.29729,0,0,1,.19549-2.04456,6.79358,6.79358,0,0,0,.12293-1.83789,4.42977,4.42977,0,0,0-.73181-1.77642c-.38543-.62568-.79882-1.229-1.18426-1.85468a5.91622,5.91622,0,0,0-.95526-1.35187.19091.19091,0,0,1-.05585-.00555c-.23468.30163-.40222.648-.6145.96643a2.27271,2.27271,0,0,1-.86591.77649A2.84537,2.84537,0,0,1,9.5636,24.548a1.29438,1.29438,0,0,1-.79889-.5642,1.03,1.03,0,0,1,.00561-.905,2.01716,2.01716,0,0,1,1.74292-.92737,10.90086,10.90086,0,0,1,1.59766-.0838c-.40778-.1452-.81-.29047-1.21222-.43573-.92169-.33515-2.363-.73737-2.36859-1.96076a1.39355,1.39355,0,0,1,.6983-1.21783,1.42414,1.42414,0,0,1,1.22339-.04468.82832.82832,0,0,1,.12293-.56976.942.942,0,0,1,.65356-.36872,1.2869,1.2869,0,0,1,1.24579.92731c.03351.07263.05585.15082.08374.22907a2.18246,2.18246,0,0,1,.553-1.21222,1.31114,1.31114,0,0,1,.92175-.43573.74527.74527,0,0,1,.715.62005,4.36711,4.36711,0,0,1-.18988,2.43561,12.33453,12.33453,0,0,1-1.15637,2.30158,7.41711,7.41711,0,0,1,1.0614,1.49713c.25134.40216.51953.80438.77649,1.2066a4.53184,4.53184,0,0,1,2.24011-3.55847.149.149,0,0,1,.21783.0838,2.81691,2.81691,0,0,1-.28491,2.64234,4.40064,4.40064,0,0,1-.88818.905,3.53512,3.53512,0,0,1-.91058.5307,1.26893,1.26893,0,0,1,.07263.1117,4.44354,4.44354,0,0,1,.6759,1.83234,32.32864,32.32864,0,0,1-.32959,3.43554c.32959-.4469.70947-.86029,1.07819-1.2904.35193-.40222.6983-.81562,1.03906-1.229a.11373.11373,0,0,1,.03351-.03912l.60333-.73737c.54742-.68713,1.06134-1.38537,1.61438-2.06689.53632-.65924,1.095-1.30164,1.64239-1.9552q.972-1.17316,1.83228-2.43a.1096.1096,0,0,1-.00555-.04468,15.08277,15.08277,0,0,0,.05029-1.73737c-.01117-.54742-.05591-1.09491-.11731-1.63116a.02067.02067,0,0,0-.01679.00555,6.22882,6.22882,0,0,1-2.53057.028,7.55777,7.55777,0,0,1-2.41327-.8603.14926.14926,0,0,1-.00562-.25695,4.70365,4.70365,0,0,1,3.62549-.48047,2.11506,2.11506,0,0,1,1.067.581c.05029.06146.10614.12848.15643.20111a24.64584,24.64584,0,0,0-.84357-3.4635c0-.00555-.00555-.01117-.00555-.01672a7.35482,7.35482,0,0,0-2.1228-1.24018c-.60334-.29052-1.40216-.6983-1.59211-1.40777a.92234.92234,0,0,1,.257-.95526,1.01642,1.01642,0,0,1,.89942-.17871,1.9,1.9,0,0,1,.93292.63122c.05585.05585.10614.11731.162.17877a1.45352,1.45352,0,0,1,.20666-1.43011,1.08611,1.08611,0,0,1,.93292-.37427,1.11628,1.11628,0,0,1,.81562.65363,3.38288,3.38288,0,0,1,.18432,1.7373c.00562-.02234.01679-.04468.02234-.067a10.24715,10.24715,0,0,1,.44135-.9776,1.56018,1.56018,0,0,1,.55865-.67035.77241.77241,0,0,1,.85468.095,1.12811,1.12811,0,0,1,.37988.88818,2.92335,2.92335,0,0,1-.91058,1.96637,7.29675,7.29675,0,0,1-1.715,1.1452q.25131.78763.45245,1.5921a18.70244,18.70244,0,0,1,.59772,5.61982c.29053-.43573.57544-.88263.84912-1.32953a44.78273,44.78273,0,0,0,2.44684-4.564c.35748-.77649.65918-1.58093,1.02228-2.3518a19.99245,19.99245,0,0,1,1.10046-1.85468,4.39557,4.39557,0,0,1-2.011-1.11163,3.88046,3.88046,0,0,1-1.12841-1.877.97963.97963,0,0,1,.26812-1.01672,1.08923,1.08923,0,0,1,.93293-.18433,1.60247,1.60247,0,0,1,.68151.40222,2.04977,2.04977,0,0,1,.39106-1.229,1.36547,1.36547,0,0,1,1.458-.56421,1.25022,1.25022,0,0,1,.84912,1.2569,3.77808,3.77808,0,0,1-.01117.43573,2.01885,2.01885,0,0,1,1.0614-.72064,1.73529,1.73529,0,0,1,1.782.34637.92237.92237,0,0,1,.16754.92175,2.94454,2.94454,0,0,1-.66473.93293,9.16641,9.16641,0,0,1-3.4635,2.45794c-.18439.30725-.37988.60889-.56983.91059a15.12025,15.12025,0,0,0-1.06695,2.17865c-.34076.79321-.70386,1.58087-1.08936,2.3518a45.84493,45.84493,0,0,1-2.54175,4.4411c-.03912.05585-.07818.11731-.1173.17316.62567-.3128,1.23455-.65356,1.83789-1.00549a34.98221,34.98221,0,0,0,3.87689-2.62561c-.00562-.00556-.00562-.01117-.01117-.01673a.12238.12238,0,0,1-.028-.04467A3.68139,3.68139,0,0,1,30.596,12.856a.1477.1477,0,0,1,.24579.05584,4.38288,4.38288,0,0,1,.30725,2.15632,4.71368,4.71368,0,0,1-.49158,1.78759,21.52113,21.52113,0,0,0,3.25122-3.16742,8.40274,8.40274,0,0,1-.00561-1.91052,5.55738,5.55738,0,0,1,.391-1.67029,2.03431,2.03431,0,0,1,1.17871-1.24572,1.04825,1.04825,0,0,1,1.28485.52508,2.57875,2.57875,0,0,1,.229,1.21784,1.53689,1.53689,0,0,1,.98877-.00562,1.15845,1.15845,0,0,1,.65918,1.20105,2.13148,2.13148,0,0,1-.4469,1.09491,1.89532,1.89532,0,0,1,.99439.53632,1.17272,1.17272,0,0,1,.27929,1.23455A1.242,1.242,0,0,1,38.74072,15.39771Z"/><path d="M78.92859,19.80194a3.8375,3.8375,0,0,1-.671-1.49231,2.22333,2.22333,0,0,1,.20514-1.59021,1.37772,1.37772,0,0,1,.59546-.5874c.26056-.11731.5589-.096.65307.21551a2.13528,2.13528,0,0,1,.04688.7132,3.29549,3.29549,0,0,1,.38012-.52679.94811.94811,0,0,1,1.16846-.309.9369.9369,0,0,1,.21393,1.16949,2.70908,2.70908,0,0,1,1.13892.10217.99291.99291,0,0,1,.69567.81641c.02619.43146-.3482.71307-.70459.87646a7.92473,7.92473,0,0,1-.97167.354.75889.75889,0,0,1,.25433.11542,1.039,1.039,0,0,1,.3081,1.41095,1.44289,1.44289,0,0,1-1.621.30847,3.48154,3.48154,0,0,1-1.52807-1.27759l-.02149-.03919c-.50525.39154-.99225.80488-1.46844,1.23774a30.86116,30.86116,0,0,0-3.11963,3.26983c-.28888.34656-.55542.71234-.82837,1.07282-.12866.00366-.2594.00921-.38568.01074A29.35157,29.35157,0,0,1,78.92859,19.80194Z"/><path d="M.37793,58.54187a.94808.94808,0,0,1,1.16846.3089,3.296,3.296,0,0,1,.38012.52685,2.13582,2.13582,0,0,1,.04688-.71325c.09418-.31153.39252-.33283.65314-.21552a1.37777,1.37777,0,0,1,.59539.58747,2.22357,2.22357,0,0,1,.2052,1.59021A3.83813,3.83813,0,0,1,2.756,62.11877,29.35188,29.35188,0,0,1,8.41589,67.9696c-.12628-.00152-.257-.00714-.38562-.0108-.273-.36041-.53955-.72626-.82843-1.07281a30.86643,30.86643,0,0,0-3.11956-3.26984C3.606,63.18329,3.119,62.77,2.61377,62.37848l-.02148.03912a3.48129,3.48129,0,0,1-1.52808,1.27759A1.71413,1.71413,0,0,1,0,63.73218V61.863l.00574-.00263L0,61.85828v-2.1496c.05463.003.11005-.00256.164.00262A.93682.93682,0,0,1,.37793,58.54187Z"/><path d="M49.40948,79.49487a.8344.8344,0,0,1,.75647-.49023,2.276,2.276,0,0,1,.94178.19147.78731.78731,0,0,1,.45337-.89038c.37249-.11738.71917.21337.86676.5296a2.77592,2.77592,0,0,1,.1795.51568,1.79474,1.79474,0,0,1,.20917-.56317c.15069-.22821.39612-.17364.57776-.01654a1.15708,1.15708,0,0,1,.33831.61621,1.86874,1.86874,0,0,1-.21691,1.33,3.22589,3.22589,0,0,1-.89917,1.04053,24.79852,24.79852,0,0,1,3.26269,6.3601c.17627.50574.33594,1.02124.46906,1.54322.12841-.39093.25348-.77869.37194-1.16639.43329-1.41174.82673-2.837,1.16718-4.27587a13.0245,13.0245,0,0,0,.40393-2.07587c.044-.70361.0979-1.40381.17169-2.10388-.33252-1.04438-.655-2.092-1.01422-3.12329a.97935.97935,0,0,1-.74536.301,3.10918,3.10918,0,0,1-1.2066-.3125,3.9713,3.9713,0,0,1-1.82618-1.66736.12889.12889,0,0,1,.114-.1853,5.67321,5.67321,0,0,1,3.39959,1.13544q-.13714-.37921-.28448-.7486a24.25511,24.25511,0,0,0-2.0741-4.10236,12.70794,12.70794,0,0,0-1.42981-1.88073.10415.10415,0,0,1-.0299-.00348,14.36946,14.36946,0,0,1-1.598-.37457,4.072,4.072,0,0,1-1.40039-.66889,2.39776,2.39776,0,0,1-.87219-1.29663,1.20466,1.20466,0,0,1,.52283-1.40784,1.32073,1.32073,0,0,1,1.21734.19635,1.36484,1.36484,0,0,1-.06585-.661.50893.50893,0,0,1,.47717-.41888,1.21739,1.21739,0,0,1,.64624.18646,2.29,2.29,0,0,1,.53882.40485,2.15017,2.15017,0,0,1,.45062.72308,4.39387,4.39387,0,0,1,.231-.90832c.08771-.23194.25519-.48981.5307-.49158.32544.00189.49945.3316.59082.59772a3.51238,3.51238,0,0,1,.06543,1.86285A3.79261,3.79261,0,0,1,53.639,69.31427c-.00672.00665-.01343.01324-.02008.01312a14.53255,14.53255,0,0,1,1.91314,2.69709,4.45429,4.45429,0,0,1,.10657-1.19458,3.363,3.363,0,0,1,1.32825-1.74842.12775.12775,0,0,1,.19238.0343c.03272.0799.07208.15979.1048.23969a2.71079,2.71079,0,0,1,.22143.73828,1.56142,1.56142,0,0,1-.24163,1.00458,6.55461,6.55461,0,0,1-.639.84283,5.23812,5.23812,0,0,1-.73456.69953c.06244.10986.11829.21972.17731.333a29.6895,29.6895,0,0,1,1.51642,3.53791.109.109,0,0,1,.03265.0932c.09143.2528.17963.509.26441.76184.23175.68188.45013,1.37042.66516,2.06219.14007-1.23419.31988-2.46154.43-3.69915a35.14168,35.14168,0,0,1,.47565-3.53962,28.84022,28.84022,0,0,1-.86164-3.10254c-.058-.28576-.1195-.56835-.17425-.85754a26.64013,26.64013,0,0,1-.47315-4.2323,16.41707,16.41707,0,0,1,.07849-2.05792c-.19885-.05426-.40454-.08869-.60345-.1297-.33826-.06836-.67316-.14008-1.00458-.22827a6.35081,6.35081,0,0,1-.98077-.33777,1.65146,1.65146,0,0,1-.60492-.43848,2.67878,2.67878,0,0,1-.4303-.7893,1.04371,1.04371,0,0,1,.01172-.8631.98553.98553,0,0,1,.903-.56244,1.593,1.593,0,0,1,.90809.27759,1.79076,1.79076,0,0,1,.3905-.91407.9735.9735,0,0,1,1.1073-.31549,1.29145,1.29145,0,0,1,.58081.59436,2.16722,2.16722,0,0,1,.86334-.58258.881.881,0,0,1,1.07294.45783,1.70979,1.70979,0,0,1-.04834,1.44049,4.66941,4.66941,0,0,1-.7674,1.22058A7.06237,7.06237,0,0,1,58.254,61.89478a18.08092,18.08092,0,0,0,.02746,3.81475,3.96013,3.96013,0,0,1,.77814-1.35,3.6827,3.6827,0,0,1,1.47046-1.09021c.07654-.02948.18921.011.17859.11389a3.094,3.094,0,0,1-2.32349,2.74518.10258.10258,0,0,1-.04321.0097c-.00659,0-.00989.00336-.01654.00324a29.39376,29.39376,0,0,0,.721,3.86865c.146.56854.30212,1.13379.48474,1.69263.01025-.0564.02392-.116.03418-.17243a38.5307,38.5307,0,0,1,1.15313-4.14313c.233-.68585.48938-1.36822.76215-2.04058a12.70431,12.70431,0,0,0,.672-1.92493c.06817-.29175.133-.58679.2077-.87854a7.70449,7.70449,0,0,1-.577-3.52252,2.47419,2.47419,0,0,1,.165-.94849.77527.77527,0,0,1,.65-.44446,1.45849,1.45849,0,0,1,1.25982.8606,1.697,1.697,0,0,1,.19635,1.06024,3.17265,3.17265,0,0,1,.25385-.2641,1.05062,1.05062,0,0,1,1.253-.235,1.14761,1.14761,0,0,1,.52411,1.20489,1.72307,1.72307,0,0,1-.50366.95984,1.34635,1.34635,0,0,1,.64312.16974.9153.9153,0,0,1,.44092.66656.82347.82347,0,0,1-.44934.761,3.26167,3.26167,0,0,1-1.78863.43433,3.69392,3.69392,0,0,1-1.8526-.54535,16.81558,16.81558,0,0,1-.4585,1.75348c-.24634.67254-.549,1.32812-.80194,2.00055a37.64694,37.64694,0,0,0-1.28259,4.159c-.10541.42761-.20429.862-.2931,1.29309a15.72053,15.72053,0,0,1,3.71247-2.96289q.59958-.355,1.219-.6701a6.132,6.132,0,0,1-.32861-1.70172,2.45687,2.45687,0,0,1,.63745-1.706.94769.94769,0,0,1,.75537-.29767.64908.64908,0,0,1,.56165.45478,1.31106,1.31106,0,0,1-.07062.73,8.597,8.597,0,0,1-.32367.84137c-.01007.01654-.01685.03637-.02679.053a2.84223,2.84223,0,0,1,1.14733-.9162.93791.93791,0,0,1,.87256.10138.91277.91277,0,0,1,.32746.77874,1.22173,1.22173,0,0,1-.73279.96845c.06976-.00293.13617-.00916.20257-.00879a1.59707,1.59707,0,0,1,.92847.18475.85425.85425,0,0,1,.42456.64325.77523.77523,0,0,1-.41919.718,2.24536,2.24536,0,0,1-1.7821-.12006,6.183,6.183,0,0,0-1.99549-.53625l-.0133.00659a20.70955,20.70955,0,0,0-2.56867,1.54193c.07312-.01282.14618-.019.21265-.02533a1.77834,1.77834,0,0,1,.97766.29462,3.95316,3.95316,0,0,1,1.85468,2.451.12542.12542,0,0,1-.15692.14844,6.3532,6.3532,0,0,1-1.94-.93433,5.235,5.235,0,0,1-1.47833-1.52918.01738.01738,0,0,0-.00659-.0133c-.35681.28009-.71051.57678-1.04431.89355A12.6509,12.6509,0,0,0,59.6767,72.351a.09132.09132,0,0,1-.03.023q-.24142,1.25857-.37012,2.531c-.06726.71332-.12121,1.42676-.19842,2.1369-.08069.73321-.19446,1.45294-.28174,2.1861q-.04221.39816-.08435.79626a.09636.09636,0,0,1-.00354.04315c-.04584.44794-.08832.89917-.12085,1.34717-.03931.47455-.062.94586-.13434,1.40692a27.15386,27.15386,0,0,1,1.859-2.22674,3.73383,3.73383,0,0,1,1.49456-.67847,1.03633,1.03633,0,0,1,.10968-.02258,2.97088,2.97088,0,0,1-.2207-.85785,3.69693,3.69693,0,0,1,.01624-1.06562,2.36739,2.36739,0,0,1,1.41113-1.73138.12523.12523,0,0,1,.17877.08075,3.80873,3.80873,0,0,1-.80365,3.44134c.39221-.084.79108-.16131,1.18-.24865a6.23339,6.23339,0,0,1,1.522-.25006,10.366,10.366,0,0,1,.69262-2.051,3.671,3.671,0,0,1,1.34375-1.55249.62639.62639,0,0,1,.793.06116,1.10189,1.10189,0,0,1,.28418.80841,1.83442,1.83442,0,0,1-.398,1.04675c.0633-.0296.12317-.06238.18647-.08532a1.08159,1.08159,0,0,1,1.29028.19689.79161.79161,0,0,1,.16571.60846.69625.69625,0,0,1-.26794.41016,1.1968,1.1968,0,0,1,.696.75769,1.17128,1.17128,0,0,1-.31543,1.1369c-.73462.71936-1.82654.09546-2.57141-.2575-.32446-.15461-.64893-.30921-.97662-.46723a9.175,9.175,0,0,1,.8938,1.00458,1.69538,1.69538,0,0,1,.47534,1.58972.8653.8653,0,0,1-.53766.538,1.0873,1.0873,0,0,1-.80921-.14416A2.39106,2.39106,0,0,1,65.078,81.44928a1.909,1.909,0,0,1-.04742-.97632c.06488-.31506.17291-.61981.21466-.93829a.16428.16428,0,0,1-.03638-.03009,4.97233,4.97233,0,0,0-1.37237.2276c-.60181.13928-1.20667.24859-1.80841.38788a3.72174,3.72174,0,0,0-1.49414.612,5.71215,5.71215,0,0,0-1.02607,1.1593,7.80743,7.80743,0,0,1-1.10669,1.32477c-.00659.00659-.0166.00988-.02331.01647-.01361.05964-.02722.11933-.04419.18232-.18341.70276-.33362,1.41235-.51709,2.11511q-.28509,1.084-.597,2.16107c-.24383.8219-.49762,1.64038-.7713,2.45221l-.00006.00665c-.277.81507-.56726,1.63007-.87744,2.43164A7.11984,7.11984,0,0,1,57.618,91.08636a8.59189,8.59189,0,0,1,1.517-.54223,3.392,3.392,0,0,0,.77521-.28418,1.87523,1.87523,0,0,0,.63086-.57733c.3515-.49927.57409-1.08228.88257-1.6117q.24151-.41683.5227-.8136a3.84661,3.84661,0,0,1,.54181-.68072.77633.77633,0,0,1,.64862-.21857.90947.90947,0,0,1,.57239.34522,1.38465,1.38465,0,0,1,.11188,1.30212,2.5204,2.5204,0,0,1-.82575.9679,3.20724,3.20724,0,0,1,1.09357-.21607,1.4464,1.4464,0,0,1,1.10248.52106,1.1471,1.1471,0,0,1,.23565,1.14673,1.01595,1.01595,0,0,1-.69055.55707c.06958.03027.1424.0639.20862.09753a1.51423,1.51423,0,0,1,.64435.525.734.734,0,0,1-.01428.73365c-.35584.66186-1.38685.41351-1.93323.17456a8.0727,8.0727,0,0,1-1.59778-.98212.04214.04214,0,0,1-.01984-.01343c.023.03.0528.06012.07581.09015a1.99052,1.99052,0,0,1,.59143,1.61359.9079.9079,0,0,1-.4483.595.82457.82457,0,0,1-.77991-.04779,1.76845,1.76845,0,0,1-.60993-.73059,4.92166,4.92166,0,0,1-.3504-.82868,4.98809,4.98809,0,0,1-.22485-1.83722c-.03009.01636-.0633.02948-.08991.04261a.14536.14536,0,0,1-.08966.00946,2.7001,2.7001,0,0,1-.65246.28827,12.81977,12.81977,0,0,0-1.45362.4729,6.9405,6.9405,0,0,0-2.678,2.06579l-.01331.01325c-.18567.46051-.39838.90954-.59717,1.36444q-.09667-.06611-.1961-.13245.94491-2.16009,1.69494-4.40051a20.82644,20.82644,0,0,0-1.15179-3.42963,25.94449,25.94449,0,0,0-1.72644-3.38312c-.27954-.46313-.57233-.913-.88513-1.34979l-.02674.02643a2.9267,2.9267,0,0,1-1.53766.66162,1.21292,1.21292,0,0,1-1.23138-.638.87332.87332,0,0,1,.58728-1.06232.638.638,0,0,1,.2326-.0318,6.67043,6.67043,0,0,1-.69744-.51861A.83334.83334,0,0,1,49.40948,79.49487Z"/><path d="M96.87592,42.32288a8.96362,8.96362,0,0,1-4.21631-1.26569.17733.17733,0,0,1-.07263-.01086,5.68966,5.68966,0,0,0-1.923.39245,15.89661,15.89661,0,0,0-1.9718,1.00311c-.004.145-.01166.283-.02094.42627a2.07036,2.07036,0,0,1,1.93976.64789,4.8012,4.8012,0,0,1,1.0188,2.29834,12.25287,12.25287,0,0,0,.37164,1.44275,4.20386,4.20386,0,0,1,3.33863,1.871.7307.7307,0,0,1,.20215.782c-.14069.28393-.445.26568-.70807.18994a4.64771,4.64771,0,0,1-.7425-.2652,1.73518,1.73518,0,0,1-.29364,1.23077.92823.92823,0,0,1-1.08447.2721,1.27041,1.27041,0,0,1-.3327-.19074,1.16619,1.16619,0,0,1-.89771.1604,2.03885,2.03885,0,0,1-1.07971-.42236.95912.95912,0,0,1-.18719-1.07562,6.353,6.353,0,0,1,.79321-1.08759,6.02037,6.02037,0,0,0,.667-1.37829c-.24707-.73157-.35187-1.50678-.58484-2.24567A2.813,2.813,0,0,0,89.787,43.32507a1.52193,1.52193,0,0,0-1.13831-.10132A49.69409,49.69409,0,0,1,86.5542,54.34161c-.52966,1.76581-1.1341,3.50849-1.77948,5.23261a7.32794,7.32794,0,0,1,4.58844-1.18054,4.62587,4.62587,0,0,1,.20758-1.29254,4.09835,4.09835,0,0,1,.542-1.3526,1.21336,1.21336,0,0,1,1.02448-.51294.98435.98435,0,0,1,.82562.7705,1.71411,1.71411,0,0,1-.16986,1.1521,1.801,1.801,0,0,1,1.14776-.118,1.04127,1.04127,0,0,1,.82349,1.00379,1.26846,1.26846,0,0,1-.88031,1.06646,2.09092,2.09092,0,0,1-.45892.1034c.47857.15417.96234.386,1.03888.91272.09686.6499-.59839,1.02508-1.16144.97345a3.18114,3.18114,0,0,1-.9137-.25983,4.301,4.301,0,0,1-.90869-.5213,2.61527,2.61527,0,0,1-.99274-1.571,6.96867,6.96867,0,0,0-4.92852,1.391c-.82,2.15539-1.69715,4.28723-2.58484,6.41583-.43048,1.03046-.86261,2.06622-1.293,3.09668a8.91517,8.91517,0,0,1,1.82269-1.20136.09793.09793,0,0,1,.05353-.05945,5.232,5.232,0,0,1,.82812-1.69091,3.259,3.259,0,0,1,1.46039-.95685,7.23408,7.23408,0,0,1,1.9195-.30585,11.00721,11.00721,0,0,1,2.10278.00842c.50873.07575,1.21326.218,1.468.73566.2749.54718-.19525,1.12085-.50421,1.55145a3.87294,3.87294,0,0,1-2.69318,1.89661,7.2003,7.2003,0,0,1-2.2063-.2218,14.952,14.952,0,0,1-2.24933-.66779q-.26769.12764-.52423.27613a8.12345,8.12345,0,0,0-1.79193,1.40393c-1.16107,2.82171-2.27405,5.65832-3.22491,8.55688-.141.43585-.28351.87708-.42615,1.3183a12.14852,12.14852,0,0,1,2.61145-2.50092,5.77174,5.77174,0,0,1,1.89221-.84057,16.71961,16.71961,0,0,1,1.92053-.25281,5.62583,5.62583,0,0,0,1.77393-.42108c.01031-.01434.019-.02338.0293-.03772.38275-.61243.74383-1.24915,1.16967-1.83069A2.20689,2.20689,0,0,1,87.671,73.40259a2.7996,2.7996,0,0,1,.98212.15234,1.78457,1.78457,0,0,1,.83911.40625A1.23577,1.23577,0,0,1,89.3819,75.506a2.18775,2.18775,0,0,1-1.17383.80591,2.31635,2.31635,0,0,1,.42444.3479c.37585.39136.74023,1.1593.23,1.59772-.47357.41473-1.24725.17493-1.75641-.08814a1.41626,1.41626,0,0,1,.17566.45215,1.05143,1.05143,0,0,1-.55,1.05774,1.02486,1.02486,0,0,1-1.13867-.28863,2.01132,2.01132,0,0,1-.436-1.31061A3.04445,3.04445,0,0,0,84.9024,76.656a14.81781,14.81781,0,0,1-3.23052.55456,6.58863,6.58863,0,0,0-3.51612,2.00409,20.7211,20.7211,0,0,0-1.75409,2.018l-.88318,2.09491c-.01623.31659-.33746-.2508-.2619-.26838.12647-.37017,1.05646-2.50317,1.176-2.86969.48437-1.48748,1.03155-3.17767,1.57293-4.6416a.25685.25685,0,0,1-.01422-.08624,8.36737,8.36737,0,0,0-.77533-4.48041,9.63085,9.63085,0,0,1-3.11554-1.1,3.54548,3.54548,0,0,1-1.69384-2.21509,1.29892,1.29892,0,0,1,.38085-1.28559,1.61217,1.61217,0,0,1,1.40992-.17132,4.8254,4.8254,0,0,1,2.749,1.39581,3.30909,3.30909,0,0,1,.662,1.46839,5.58569,5.58569,0,0,1-.09192,1.74951,8.90006,8.90006,0,0,1,.79547,2.67944,8.59289,8.59289,0,0,1,.06818,1.04462c.4934-1.30921,1.00653-2.60645,1.53735-3.90406a.02888.02888,0,0,1-.004-.02465,12.51829,12.51829,0,0,0-2.48871-6.19855c-.71295-1.03974-1.47979-2.03766-2.20837-3.0647a35.65608,35.65608,0,0,1-1.94678-3.05969c-.22961-.41028-.4505-.82971-.66443-1.25275a15.77726,15.77726,0,0,1-3.228-2.56775c-.634-.65265-1.21277-1.4461-1.92536-2.05285a.09036.09036,0,0,1-.044.0097c-.00861.009-.01191.01972-.02588.0271-1.08863.90833-2.595.44733-3.7088-.16687a7.6871,7.6871,0,0,1-2.66095-2.49145,7.51793,7.51793,0,0,1-.81073-1.649.91547.91547,0,0,1,.00305-.85883c.21325-.27307.58636-.175.87384-.121a9.77626,9.77626,0,0,1,4.02356,1.67975,6.73015,6.73015,0,0,1,2.37121,3.16193,6.58327,6.58327,0,0,1,.64124.57305c.48572.48969.91424,1.03187,1.3913,1.53064a14.44357,14.44357,0,0,0,1.46722,1.36121c.42432.3479.873.67407,1.33362.98059a36.13207,36.13207,0,0,1-1.89984-4.75867c-.29914-.94073-.558-1.89825-.77454-2.8601a.1383.1383,0,0,1-.05212-.03955A20.182,20.182,0,0,1,67.194,45.19531l-.12756-.26758A4.05108,4.05108,0,0,0,65.37695,43.831a11.09623,11.09623,0,0,1-1.88629-.877,3.48694,3.48694,0,0,1-1.30774-1.59253,2.25542,2.25542,0,0,1-.0152-2.04572,1.5275,1.5275,0,0,1,1.77265-.39819,3.32335,3.32335,0,0,1,1.89307,1.19495,5.20253,5.20253,0,0,1,.63916,1.976,10.99921,10.99921,0,0,0,.65319,2.13825,17.26609,17.26609,0,0,0,2.346,3.88513,35.43155,35.43155,0,0,1-.54394-3.56653c-.02662-.25385-.076-.83057-.07782-.91889a39.24493,39.24493,0,0,1,.17651-6.6651c.02472-.24963.05646-.503.08655-.751a8.50253,8.50253,0,0,1-3.16053-1.80408,1.32113,1.32113,0,0,1-.37854-.68463,1.18959,1.18959,0,0,1,.22437-.837,1.57432,1.57432,0,0,1,1.335-.70324,1.62686,1.62686,0,0,1,.98572.4049,1.24237,1.24237,0,0,1,.6084-1.05719,1.20282,1.20282,0,0,1,1.46014.36475,1.74653,1.74653,0,0,1,.34918.968,1.05886,1.05886,0,0,1,.57056-.4256.70225.70225,0,0,1,.73132.24426,1.03259,1.03259,0,0,1,.19428.82636,3.13275,3.13275,0,0,1-.353.93158,4.02229,4.02229,0,0,1-.58453.84814,2.86836,2.86836,0,0,1-1.64142.91834,40.73089,40.73089,0,0,0-.28461,7.07025A16.02386,16.02386,0,0,1,70.77222,41.953a7.57327,7.57327,0,0,0,.90149-.81421,3.48668,3.48668,0,0,0,.63336-1.04364c.0487-.11938.09906-.24414.14941-.36889a3.57265,3.57265,0,0,1-.003-1.9718,2.85415,2.85415,0,0,1,.43585-.8592A3.66033,3.66033,0,0,1,75.046,35.52252a2.28786,2.28786,0,0,1,1.308.02521.78922.78922,0,0,1,.27063.18335,1.00857,1.00857,0,0,1,.20777.87732,3.6804,3.6804,0,0,1-1.36487,2.4602,3.255,3.255,0,0,1-.62006.34009,7.126,7.126,0,0,1-2.07043.43445,5.03362,5.03362,0,0,1-.64783,1.27893,7.09031,7.09031,0,0,1-1.362,1.26221A9.9202,9.9202,0,0,0,69.19678,43.734a33.716,33.716,0,0,0,.62158,4.39178c.48126-.96789,1.61912-1.46911,2.30872-2.27887a3.31362,3.31362,0,0,0,.42932-.66821,2.85267,2.85267,0,0,1,.04028-2.26251,5.08014,5.08014,0,0,1,.75531-1.21051,5.73517,5.73517,0,0,1,.9314-.98627.96575.96575,0,0,1,.874-.197.78565.78565,0,0,1,.22852.11175,1.47512,1.47512,0,0,1,.55548,1.11377,2.19,2.19,0,0,1,.01745.32117,3.16892,3.16892,0,0,1-.81836,2.15009,3.90543,3.90543,0,0,1-2.30609,1.1568,3.71342,3.71342,0,0,1-.801,1.056c-.36579.331-.77338.60833-1.14283.93243a2.57651,2.57651,0,0,0-.93145,1.40155c.16.71039.34625,1.4115.54651,2.10516A34.90167,34.90167,0,0,0,72.003,54.98456a9.71271,9.71271,0,0,1,2.29529-4.74524c-.303-.87177-1.26471-1.392-1.372-2.36688a1.213,1.213,0,0,1,.33221-.99652,1.01457,1.01457,0,0,1,.1493-.12336,1.044,1.044,0,0,1,1.11157-.0766,1.618,1.618,0,0,1,.55493.58728,3.12123,3.12123,0,0,1,.12958-.30493.95164.95164,0,0,1,1.03259-.6333c.49054.13446.56287.71247.47821,1.1366a2.92275,2.92275,0,0,1-.3175.85486,2.10453,2.10453,0,0,1,.96136-.15827,1.07886,1.07886,0,0,1,.696.245.59224.59224,0,0,1,.1206.68652,1.85675,1.85675,0,0,1-1.28741.94617,10.08476,10.08476,0,0,1-1.0473.19006q-.57075.08634-1.14136.17273a.24989.24989,0,0,1-.05664-.00586.17041.17041,0,0,1-.06952.05445,9.33106,9.33106,0,0,0-2.29437,4.95025.15922.15922,0,0,1-.04749.09638c.202.44275.41107.88177.62866,1.31183a.14305.14305,0,0,1,.07367.13977c.10675.20275.20654.40911.32031.60809a33.32254,33.32254,0,0,0,1.87488,3.08417c.70752,1.03808,1.48139,2.03234,2.203,3.063.20764.29242.41363.59021.6126.89166a4.76838,4.76838,0,0,0,.56861-1.09876,3.54,3.54,0,0,1-.3103-2.13141,2.88019,2.88019,0,0,1,1.36059-1.99371A1.57914,1.57914,0,0,1,80.74,59.1192a1.191,1.191,0,0,1,.79321.74292,2.62271,2.62271,0,0,1-.39972,2.4787,2.80165,2.80165,0,0,1-1.04406.84027,9.05165,9.05165,0,0,0-1.26966.45453,4.592,4.592,0,0,1-.67651,1.2583,12.59486,12.59486,0,0,1,2.0285,4.90967l.01935.16388q.44824-1.10679.91254-2.20862c.98352-2.36206,1.981-4.73151,2.90375-7.12408a.15946.15946,0,0,1,.00146-.09894A3.46726,3.46726,0,0,0,83.64642,57.78a4.57868,4.57868,0,0,0-2.43036-1.95209,9.43976,9.43976,0,0,0-1.5816-.42584,3.4884,3.4884,0,0,1-1.943,1.1933c-.72284.16205-1.86292.142-2.19806-.66358a.78492.78492,0,0,1,.20141-.9143A.76649.76649,0,0,1,75.465,54.759a.93943.93943,0,0,1,.33325-1.11316,1.576,1.576,0,0,1,1.08258-.36041,1.084,1.084,0,0,1-.006-.28265.93491.93491,0,0,1,1.10809-.82038,1.81126,1.81126,0,0,1,1.296.95136,4.03445,4.03445,0,0,1,.48315,1.95105,7.07045,7.07045,0,0,1,3.0188,1.20459A4.38166,4.38166,0,0,1,84.429,58.93488a3.7336,3.7336,0,0,1,.05706.43872c.37287-.99561.72974-1.99622,1.0669-3.00873l.01-.03205a3.75168,3.75168,0,0,0-.25916-2.636c-.11328-.25733-.24585-.509-.37836-.76062a2.4701,2.4701,0,0,1-2.15045-1.08161,3.60567,3.60567,0,0,1-.58825-2.744,5.47448,5.47448,0,0,1,.43817-1.414.78491.78491,0,0,1,.49713-.47168.88912.88912,0,0,1,.58673.08826,3.03464,3.03464,0,0,1,1.06354.90863,4.27667,4.27667,0,0,1,.69244,1.238,4.21623,4.21623,0,0,1-.23877,3.318A6.37519,6.37519,0,0,1,86.004,54.8905c.00042.01764.0061.03693.00647.05457a51.7436,51.7436,0,0,0,2.19293-10.39722c.04779-.494.09027-.98968.11676-1.49029a3.19817,3.19817,0,0,0-1.86835-1.19892,5.68659,5.68659,0,0,0-2.60327.05884c-.4696.1001-.93152.23175-1.38971.37054a5.44133,5.44133,0,0,1-2.65448,3.05481,2.351,2.351,0,0,1-1.847-.02264,1.37208,1.37208,0,0,1-.78614-1.577,1.03475,1.03475,0,0,1,.46082-.6.304.304,0,0,1,.05957-.02252,2.71145,2.71145,0,0,1-.73114-.39612.80371.80371,0,0,1-.28-.4552A.74387.74387,0,0,1,76.7,41.942a1.14718,1.14718,0,0,1,.63263-.66364A1.96781,1.96781,0,0,1,78.17,41.1051a1.39852,1.39852,0,0,1-.17791-.14288.61936.61936,0,0,1-.15155-.81311.93751.93751,0,0,1,.87463-.33136,6.0335,6.0335,0,0,1,2.26428.61981c.62323.31018,1.35047.77533,1.45783,1.50452,1.69976-.5025,3.61126-.9336,5.22418.05163a3.28705,3.28705,0,0,1,.68683.55793c.03405-.80817.0415-1.6247.02258-2.43177-.0127-.01562-.02008-.0296-.03284-.04522a4.655,4.655,0,0,0-2.55139-2.16517c-.758-.32843-1.553-.57482-2.31091-.90332a1.20194,1.20194,0,0,1-1.34735.70539,8.82257,8.82257,0,0,1-.93451-.155,8.97084,8.97084,0,0,1-.98969-.25995A3.94337,3.94337,0,0,1,78.18964,35.871a2.735,2.735,0,0,1-.34839-.763A3.36668,3.36668,0,0,1,77.95,33.32281a2.1675,2.1675,0,0,1,.31537-.79119.64123.64123,0,0,1,.69043-.18958,2.09348,2.09348,0,0,1,.66248.41c.264.20465.52478.42.80249.5996a9.60728,9.60728,0,0,0,1.81671.76185,2.66439,2.66439,0,0,1,1.47174,1.15789,1.44779,1.44779,0,0,1-.05963,1.43781c.13379.059.26922.11267.4046.16632a13.105,13.105,0,0,1,3.40527,1.59924,4.41718,4.41718,0,0,1,.88739.92993,29.22559,29.22559,0,0,0-.86688-5.9591c-.10229-.406-.21857-.80457-.34015-1.2049A.82442.82442,0,0,1,86.61,32.252a.84883.84883,0,0,1-.59528-.74011c-.04065-.00091-.08667-.00348-.12732-.00439a8.04853,8.04853,0,0,1-1.34619-.2417,9.54715,9.54715,0,0,1-1.37006-.448,2.8203,2.8203,0,0,1-.95013-.55762,1.12715,1.12715,0,0,1-.35871-.91833,1.27935,1.27935,0,0,1,.55048-.87036,2.19426,2.19426,0,0,1,2.2467.129,4.39759,4.39759,0,0,1,.86493.62476c-.0285-.09656-.04638-.18982-.068-.2901a3.00939,3.00939,0,0,1,.312-2.36548,1.12327,1.12327,0,0,1,1.77735-.09247,2.96829,2.96829,0,0,1,.42529,2.13776c-.02.14-.04907.27142-.07806.40271a3.44533,3.44533,0,0,1,1.8554-.91046.89728.89728,0,0,1,.91266.3764,1.223,1.223,0,0,1-.0365,1.02387,3.03513,3.03513,0,0,1-1.50488,1.6098,2.9151,2.9151,0,0,1-1.41132.27032.78344.78344,0,0,1-.03595.30463.82558.82558,0,0,1-.23071.36713,28.63419,28.63419,0,0,1,1.10321,5.44171,5.24554,5.24554,0,0,1,1.126-1.55762,5.461,5.461,0,0,1,.95306-.71643,4.49912,4.49912,0,0,1,1.17151-2.49683,4.067,4.067,0,0,1,2.58661-1.00549,2.1066,2.1066,0,0,1,1.29895.26215c.41467.304.3216.83075.184,1.256a3.34232,3.34232,0,0,1-1.85071,2.04657,6.53012,6.53012,0,0,1-3.2196.2362,5.09415,5.09415,0,0,0-1.56452,1.46265,4.24718,4.24718,0,0,0-.61376,1.30115,34.22055,34.22055,0,0,1,.08685,3.75818,12.53394,12.53394,0,0,1,2.139-1.03308,6.07629,6.07629,0,0,1,1.70214-.303,4.09191,4.09191,0,0,1,2.46521-2.06665,7.93256,7.93256,0,0,1,1.88459-.11774,18.96,18.96,0,0,1,2.07477.09906A3.30647,3.30647,0,0,1,100,38.88226v2.01892c-.01294.01618-.01947.036-.03278.05207A4.06789,4.06789,0,0,1,96.87592,42.32288Z"/><path d="M3.23364,98.80536a1.42738,1.42738,0,0,1,.9502.52789A2.56255,2.56255,0,0,1,4.60394,100H1.9895a1.99165,1.99165,0,0,1,.36182-.76355A1.07616,1.07616,0,0,1,3.23364,98.80536Z"/><path d="M.6911,73.078A4.065,4.065,0,0,1,1.04,75.54553a4.9308,4.9308,0,0,1,.633.87183,4.73955,4.73955,0,0,1,.559,1.64429,25.87206,25.87206,0,0,1,2.39765-4.40717.7447.7447,0,0,1-.10181-.3783.7072.7072,0,0,1,.04981-.2727,2.63421,2.63421,0,0,1-1.14722-.60816,2.74238,2.74238,0,0,1-.87231-1.78991,1.10518,1.10518,0,0,1,.24029-.89405.81073.81073,0,0,1,.88812-.08276,3.11293,3.11293,0,0,1,1.36084,1.279c.00983-.12115.0196-.24231.03949-.36859a2.68206,2.68206,0,0,1,.93494-1.73346,1.01493,1.01493,0,0,1,1.5105.5517,2.71938,2.71938,0,0,1-.35852,2.126c-.04529.08081-.08545.15667-.13575.23248a3.97484,3.97484,0,0,1,.91291-.31,1.98263,1.98263,0,0,1,1.97473.48511,1.15589,1.15589,0,0,1,.24438.89789,1.01818,1.01818,0,0,1-.55365.69787,2.54642,2.54642,0,0,1-.96862.22937,8.6209,8.6209,0,0,1-1.30231.0232,7.27175,7.27175,0,0,1-1.22687-.14862c-.0354-.01-.07574-.02-.11114-.03a.767.767,0,0,1-.71064.4812.745.745,0,0,1-.45459-.15045c-.21136.31347-.41754.62689-.6137.95043a26.4001,26.4001,0,0,0-2.33081,4.91675A3.98914,3.98914,0,0,1,2.911,79.1908a11.84169,11.84169,0,0,1,3.36578-.47718c.13117-.01043.26239-.02081.39362-.03625a1.308,1.308,0,0,1,.33026-1.25769,2.40731,2.40731,0,0,1,1.57855-.60932,8.67825,8.67825,0,0,0,1.77136-.17572c.28754-.08136.56989-.19812.8523-.30474a1.89017,1.89017,0,0,1,.681-.17829.57931.57931,0,0,1,.546.347,1.95772,1.95772,0,0,1,.06232.76715,3.04176,3.04176,0,0,1-.37995,1.57074,2.47155,2.47155,0,0,1-.50348.56646,3.563,3.563,0,0,1-2.11847.69642,8.09368,8.09368,0,0,1-.92382-.03821,7.984,7.984,0,0,1-.84827-.1142c-.47974-.09985-.98022-.42682-.97644-.96692-.74182.08246-1.4939.08417-2.23578.16663a4.20607,4.20607,0,0,0-2.7785,1.19262c-.01514.01014-.02521.02027-.04035.0304-.23059.692-.441,1.39923-.6261,2.10632a2.96843,2.96843,0,0,1,.74134-.29956c1.65466-.42273,3.19116.45709,4.52581,1.34241a2.108,2.108,0,0,1,1.65864-.91241,5.45081,5.45081,0,0,1,2.12017.06585.84715.84715,0,0,1,.66748.51837.55969.55969,0,0,1-.34674.66205,1.26343,1.26343,0,0,1-.19165.07617,1.77706,1.77706,0,0,1,.67719.37195,1.03676,1.03676,0,0,1,.37024.74115.67123.67123,0,0,1-.07007.28791.72607.72607,0,0,1-.36261.31884,2.45018,2.45018,0,0,1-.73663.148.27888.27888,0,0,1,.04547.03528.93518.93518,0,0,1,.23871.6405A1.24,1.24,0,0,1,9.3006,87.626a2.1243,2.1243,0,0,1-1.60126-.47089A4.91648,4.91648,0,0,1,6.21771,83.812c-.35888-.24152-.7229-.4779-1.10193-.689A5.13748,5.13748,0,0,0,2.88293,82.381a2.88946,2.88946,0,0,0-1.932.53943c-.11.43945-.2049.87885-.2948,1.31818A41.30069,41.30069,0,0,0,0,88.79291v-2.5033c.16534-1.11236.3595-2.21985.623-3.31286A1.24252,1.24252,0,0,0,0,82.75684V82.4624a1.612,1.612,0,0,1,.698.20124c.03-.12629.06-.2475.095-.37378C.53491,82.01575.27148,81.7442,0,81.48071V81.064q.46005.42342.88812.88238a30.91741,30.91741,0,0,1,1.07282-3.2229,3.8388,3.8388,0,0,0-.18469-1.28674,4.603,4.603,0,0,0-.9629-1.67865C.5434,75.70447.27087,75.644,0,75.57562V72.27075A3.14012,3.14012,0,0,1,.6911,73.078Z"/><path d="M10.55328,99.00055a.12919.12919,0,0,1,.10071-.10114c.30213-.31366.59918-.63739.89124-.96612a.1441.1441,0,0,1-.01538-.09589,8.43086,8.43086,0,0,0-.66742-4.88464.15476.15476,0,0,1-.0456-.06555.22442.22442,0,0,1-.05047-.00995q-.46995-.22614-.93994-.45221a9.10332,9.10332,0,0,1-.85407-.4422,1.67766,1.67766,0,0,1-.86072-1.159.53513.53513,0,0,1,.28638-.56091.97463.97463,0,0,1,.66626-.02679,1.901,1.901,0,0,1,.78833.3919,2.64128,2.64128,0,0,1-.0473-.82263c.03949-.38879.25543-.86884.71478-.85474a.85981.85981,0,0,1,.72369.82117,2.81168,2.81168,0,0,1,.031.29773,1.4621,1.4621,0,0,1,.63519-.35992.94323.94323,0,0,1,.9397.36132.9179.9179,0,0,1,.09625.14612,1.09611,1.09611,0,0,1,.0224.94892c-.3515.81353-1.32025,1.00756-1.81335,1.68a8.77639,8.77639,0,0,1,.72253,4.70782,31.52887,31.52887,0,0,0,2.38538-3.15521c.35712-.546.7041-1.10205,1.03094-1.67322a2.328,2.328,0,0,0-.43243-1.45776c-.233-.37805-.51148-.72571-.7395-1.10876a3.35786,3.35786,0,0,1-.41144-1.12476,3.52911,3.52911,0,0,1-1.68463-1.61139,2.86346,2.86346,0,0,1-.13593-2.07428,1.98033,1.98033,0,0,1,.10028-.27277,1.33291,1.33291,0,0,1,.77545-.81451.7103.7103,0,0,1,.22712-.03583.8726.8726,0,0,1,.70257.40216,5.18211,5.18211,0,0,1,.54261,1.09919,4.59138,4.59138,0,0,1,.33093,1.246,2.57782,2.57782,0,0,1-.56586,1.96484,2.99059,2.99059,0,0,0,.19342.6911c.38056.88245,1.23029,1.6175,1.389,2.58124a30.45524,30.45524,0,0,0,1.70282-3.62817,8.964,8.964,0,0,0-.998-1.58271,6.40653,6.40653,0,0,1-.84131-1.45178,4.546,4.546,0,0,1-.21991-1.27655,6.438,6.438,0,0,1-1.67291-.92492,2.94321,2.94321,0,0,1-.44525-.45832,3.32551,3.32551,0,0,1-.5257-2.4873.91123.91123,0,0,1,.41236-.70258.71245.71245,0,0,1,.28247-.08648,2.06712,2.06712,0,0,1,1.13647.3255,3.30745,3.30745,0,0,1,1.49817,1.75817,2.57789,2.57789,0,0,1,.14832.85779,3.22785,3.22785,0,0,1-.52606,1.70227c.01037.12116.02075.24225.03106.35828a3.14931,3.14931,0,0,0,.27,1.06958,6.83729,6.83729,0,0,0,.56244.94257,14.47814,14.47814,0,0,1,1.03339,1.5675,36.798,36.798,0,0,0,1.63128-6.18219,2.59167,2.59167,0,0,1-1.17389-1.22888,3.63663,3.63663,0,0,1-.27966-.88782,2.82874,2.82874,0,0,1-.05755-.89831.93311.93311,0,0,1,.38714-.66217.63461.63461,0,0,1,.69653-.01673.95735.95735,0,0,1,.37983.519,1.57738,1.57738,0,0,1,.55853-.74328,1.08679,1.08679,0,0,1,1.358.07257,1.12246,1.12246,0,0,1,.24481,1.07458,1.47025,1.47025,0,0,1,.95886-.088,1.42264,1.42264,0,0,1,.96631.96192,1.07491,1.07491,0,0,1-.0285.78247,1.1935,1.1935,0,0,1-.50867.49078,7.68238,7.68238,0,0,1-3.20874.71912c-.03985.22216-.07971.4494-.12463.67163a35.456,35.456,0,0,1-1.61707,5.80352c-.025.07575-.22082.5608-.31115.77295a32.03674,32.03674,0,0,1-1.41669,2.936,15.60293,15.60293,0,0,0,3.05768-2.73279,9.9437,9.9437,0,0,0,1.13183-1.6734,4.70134,4.70134,0,0,1,1.07666-1.537,3.00277,3.00277,0,0,1,1.95227-.52948,1.38039,1.38039,0,0,1,1.42536.81452,2.0382,2.0382,0,0,1-.55628,1.76294,3.1509,3.1509,0,0,1-1.5523,1.02826,10.03044,10.03044,0,0,1-1.862.25665,3.65955,3.65955,0,0,0-1.75043.49872l-.18128.1972A18.23056,18.23056,0,0,1,15.61212,92.856a.12435.12435,0,0,1-.05548.02032c-.44238.77326-.92017,1.53156-1.42834,2.26459a32.64337,32.64337,0,0,1-2.90424,3.60571c.47919-.14245.95331-.305,1.41217-.49286a13.05886,13.05886,0,0,0,1.6286-.78613c.5445-.30414,1.0586-.65863,1.60809-.95264a5.94723,5.94723,0,0,1,.70594-.3247,6.08136,6.08136,0,0,1,2.88751-2.10144,8.83431,8.83431,0,0,1,3.92114-.38251c.26258.02966.6109.044.7226.33649a.82722.82722,0,0,1-.22541.74261,6.79308,6.79308,0,0,1-1.138,1.209A6.94591,6.94591,0,0,1,19.787,97.43982c-1.12506.2348-2.54853.233-3.24762-.84052-.01013-.01007-.01013-.0202-.0152-.03027a.08087.08087,0,0,1-.03534-.02008c-.77661.3349-1.48712.86652-2.208,1.2619a14.25573,14.25573,0,0,1-3.46972,1.36078q-.40768.42335-.82923.82837H9.519c.19879-.18646.403-.36768.59619-.55927C10.26624,99.29907,10.40723,99.14734,10.55328,99.00055Z"/><path d="M1.71747,89.20819a3.864,3.864,0,0,1,.92676-.8855,2.74167,2.74167,0,0,1,1.15985-.50244.803.803,0,0,1,.53015.07959.70927.70927,0,0,1,.30414.53937,4.94584,4.94584,0,0,1,.003,1.33765A3.25771,3.25771,0,0,1,3.40479,91.9906a2.2319,2.2319,0,0,1-2.14448.36328c-.18127.18219-.3626.36432-.52868.55652A3.97258,3.97258,0,0,0,0,94.1344v-.7243a6.61721,6.61721,0,0,1,1.04279-1.27277A3.80939,3.80939,0,0,1,1.71747,89.20819Z"/><path d="M2.22229,95.81946a6.38915,6.38915,0,0,1,2.92712-.23889,3.64546,3.64546,0,0,1,.93531-1.55683,1.6367,1.6367,0,0,1,1.37188-.47766.84476.84476,0,0,1,.73926,1.00281.97784.97784,0,0,1-.0802.24249,1.42372,1.42372,0,0,1,.8393.5987A.84876.84876,0,0,1,8.94733,96.44a.69182.69182,0,0,1-.26722.16217.70917.70917,0,0,1-.06872.84314c-.50336.60688-1.49335.32141-2.07465-.01043a3.15236,3.15236,0,0,1-1.36139-1.54645,8.5297,8.5297,0,0,0-1.47906-.05219,4.13767,4.13767,0,0,0-2.61737,1.04084,3.13283,3.13283,0,0,0-1.04468,2.284.14455.14455,0,0,1-.02508.08588c.01757.2511.0429.502.06207.75305H0V97.87842a2.19883,2.19883,0,0,1,.09644-.21167A3.959,3.959,0,0,1,2.22229,95.81946Z"/><path d="M63.63153.54938A.80254.80254,0,0,1,63.39075.82a.82183.82183,0,0,1,.21093.95733c-.351.84363-1.5448.86457-2.30163.69489a3.653,3.653,0,0,1-2.03461-1.24951,9.87921,9.87921,0,0,0-1.65625.44586,4.79475,4.79475,0,0,0-2.54492,2.04419,3.41131,3.41131,0,0,0-.37946,2.88568c.32337.8197,2.01221,5.09015,3.04218,7.56366.3241.76916,2.33533,5.73724,2.852,7.10815a9.005,9.005,0,0,1,.07129-1.09387,9.32137,9.32137,0,0,1,.833-2.80578,5.851,5.851,0,0,1-.0962-1.832,3.46644,3.46644,0,0,1,.69318-1.5376,5.0532,5.0532,0,0,1,2.8786-1.46161,1.68792,1.68792,0,0,1,1.47638.17932,1.36026,1.36026,0,0,1,.39881,1.34619,3.713,3.713,0,0,1-1.77363,2.31964A10.08482,10.08482,0,0,1,61.798,17.53644,8.76278,8.76278,0,0,0,60.986,22.228a.26516.26516,0,0,1-.01489.09039c.567,1.533,1.13995,3.3028,1.64716,4.86035.12512.38391,1.099,2.61737,1.23138,3.00507.07916.01837-.2572.61255-.27429.28094l-.92475-2.19366a21.699,21.699,0,0,0-1.83685-2.1131A6.89881,6.89881,0,0,0,57.132,24.05939a15.517,15.517,0,0,1-3.38294-.58063,3.18786,3.18786,0,0,0-.26654,1.49115,2.10656,2.10656,0,0,1-.4566,1.37238,1.073,1.073,0,0,1-1.19238.30224,1.101,1.101,0,0,1-.576-1.1076,1.48246,1.48246,0,0,1,.184-.47345c-.53314.27551-1.34333.52655-1.83924.09228-.53424-.459-.15265-1.26318.24091-1.673a2.42494,2.42494,0,0,1,.4444-.36426,2.29076,2.29076,0,0,1-1.22913-.84387,1.29406,1.29406,0,0,1-.11554-1.6178,1.86844,1.86844,0,0,1,.87866-.42535,2.9321,2.9321,0,0,1,1.02838-.15949,2.31017,2.31017,0,0,1,1.63166,1.056c.44592.60889.82409,1.2757,1.22491,1.91693.01081.015.01984.02448.03064.03955a5.89266,5.89266,0,0,0,1.85755.44092,17.48365,17.48365,0,0,1,2.0111.26477,6.04362,6.04362,0,0,1,1.98145.88019,12.7191,12.7191,0,0,1,2.73456,2.61883c-.14936-.46209-.29865-.92407-.44623-1.38055-.99567-3.03516-2.16119-6.00549-3.377-8.96027a8.502,8.502,0,0,0-1.87635-1.47009q-.26871-.15555-.549-.28912a15.66657,15.66657,0,0,1-2.35535.69922,7.54044,7.54044,0,0,1-2.31036.23223,4.0555,4.0555,0,0,1-2.82013-1.986c-.32349-.45093-.81586-1.05163-.528-1.62463.26684-.542,1.00451-.691,1.53723-.77033a11.5213,11.5213,0,0,1,2.202-.00885,7.5778,7.5778,0,0,1,2.00989.32026,3.41291,3.41291,0,0,1,1.5293,1.002,5.478,5.478,0,0,1,.86713,1.77057.103.103,0,0,1,.05615.06225,9.33914,9.33914,0,0,1,1.90863,1.258c-.45081-1.079-.90332-2.16364-1.354-3.24261-.92962-2.22895-1.84808-4.46137-2.70678-6.71833a7.29648,7.29648,0,0,0-5.16083-1.4566,2.73875,2.73875,0,0,1-1.03961,1.645,4.50342,4.50342,0,0,1-.95154.546,3.32923,3.32923,0,0,1-.95679.272c-.5896.05414-1.31762-.33881-1.21618-1.01935.0802-.55157.58679-.79425,1.08789-.95575a2.18448,2.18448,0,0,1-.48059-.10827,1.32841,1.32841,0,0,1-.92182-1.1167,1.0903,1.0903,0,0,1,.86237-1.05109,1.88554,1.88554,0,0,1,1.2019.12354,1.79462,1.79462,0,0,1-.178-1.20643,1.03091,1.03091,0,0,1,.86463-.80688,1.27069,1.27069,0,0,1,1.07281.53711,4.29276,4.29276,0,0,1,.56751,1.41644,4.845,4.845,0,0,1,.2174,1.35346c2.79212-.23706,4.97895,1.3471,5.01178,1.196A6.44514,6.44514,0,0,1,55.9707,2.15186,7.40373,7.40373,0,0,1,59.13177.89056,4.59551,4.59551,0,0,1,59.227,0h4.449A.73229.73229,0,0,1,63.63153.54938Z"/><path d="M20.14771,66.27429a.09019.09019,0,0,1-.03913.02234c-.00555.01117-.00555.02234-.01672.03351-.77094,1.18988-2.34625,1.19543-3.592.93848a7.68646,7.68646,0,0,1-3.27918-1.59211,7.51579,7.51579,0,0,1-1.26251-1.33508.91547.91547,0,0,1-.25134-.82123c.12286-.324.5083-.34076.79883-.37426a9.77644,9.77644,0,0,1,4.34051.41339,6.73043,6.73043,0,0,1,3.20093,2.31829,6.58807,6.58807,0,0,1,.7821.35755c.60889.324,1.17871.715,1.78205,1.05023a14.45051,14.45051,0,0,0,1.80438.86585c.5083.20672,1.03345.38543,1.56415.54187a36.13116,36.13116,0,0,1-3.22333-3.983c-.56421-.81-1.09491-1.648-1.58649-2.50262a.1375.1375,0,0,1-.06146-.02234,20.17786,20.17786,0,0,1-3.34619-2.73731L17.56122,59.23a4.05081,4.05081,0,0,0-1.93842-.54748,11.09364,11.09364,0,0,1-2.06134-.2793,3.48718,3.48718,0,0,1-1.72058-1.134,2.25543,2.25543,0,0,1-.62005-1.94959,1.52752,1.52752,0,0,1,1.57531-.905,3.32326,3.32326,0,0,1,2.16193.581,5.20169,5.20169,0,0,1,1.19543,1.69825,11.00248,11.00248,0,0,0,1.2569,1.84906,17.26626,17.26626,0,0,0,3.39087,3.0166A35.45072,35.45072,0,0,1,19.226,58.31378c-.10052-.23462-.31842-.77087-.34631-.85467a39.23843,39.23843,0,0,1-1.80438-6.41864c-.0503-.24579-.095-.4972-.13965-.743a8.50182,8.50182,0,0,1-3.55292-.78766,1.32094,1.32094,0,0,1-.56421-.54187,1.18966,1.18966,0,0,1-.03351-.86591,1.57435,1.57435,0,0,1,1.067-1.06695,1.62684,1.62684,0,0,1,1.0614.095,1.24235,1.24235,0,0,1,.26819-1.18988,1.20279,1.20279,0,0,1,1.50268-.08381,1.74627,1.74627,0,0,1,.62006.82117,1.0592,1.0592,0,0,1,.419-.57538.70225.70225,0,0,1,.77087.01679,1.03278,1.03278,0,0,1,.43018.73181,3.13249,3.13249,0,0,1-.06147.99432,4.02168,4.02168,0,0,1-.30725.98322,2.86815,2.86815,0,0,1-1.296,1.363A40.72971,40.72971,0,0,0,19.08069,57.029a16.01792,16.01792,0,0,1,1.13965-1.73736,7.56879,7.56879,0,0,0,.62-1.04462,3.48589,3.48589,0,0,0,.29608-1.18433c.01117-.12848.02234-.26251.03351-.3966a3.57237,3.57237,0,0,1-.58654-1.88257,2.85362,2.85362,0,0,1,.162-.94971A3.66051,3.66051,0,0,1,22.399,47.88422a2.28749,2.28749,0,0,1,1.25689-.3631.78961.78961,0,0,1,.31281.095,1.00855,1.00855,0,0,1,.45813.77649,3.68053,3.68053,0,0,1-.57544,2.754,3.25725,3.25725,0,0,1-.49158.50836,7.12662,7.12662,0,0,1-1.84906,1.02789,5.033,5.033,0,0,1-.24017,1.41333A7.08973,7.08973,0,0,1,20.3432,55.705a9.918,9.918,0,0,0-1.10046,1.75409A33.70935,33.70935,0,0,0,21.13647,61.47c.17316-1.06695,1.1117-1.88257,1.53064-2.86017a3.31162,3.31162,0,0,0,.21228-.76532,2.85263,2.85263,0,0,1-.63122-2.173,5.07915,5.07915,0,0,1,.3631-1.37982,5.7328,5.7328,0,0,1,.59771-1.21784.96573.96573,0,0,1,.77649-.4469.78614.78614,0,0,1,.25141.03913,1.475,1.475,0,0,1,.86029.89941,2.19286,2.19286,0,0,1,.11169.30164,3.169,3.169,0,0,1-.1452,2.296,3.90544,3.90544,0,0,1-1.86029,1.78759,3.71441,3.71441,0,0,1-.45245,1.24579c-.25141.4245-.55866.81-.81562,1.229a2.57686,2.57686,0,0,0-.47485,1.61444c.36316.63122.7486,1.24572,1.1452,1.84906a34.89653,34.89653,0,0,0,2.64789,3.48584,9.71274,9.71274,0,0,1,.78772-5.212c-.54749-.743-1.62006-.95526-2.01111-1.85467a1.21307,1.21307,0,0,1,.02234-1.05024,1.01578,1.01578,0,0,1,.10614-.162,1.04392,1.04392,0,0,1,1.03906-.40223,1.61783,1.61783,0,0,1,.70386.39667,3.1323,3.1323,0,0,1,.03357-.32959.95155.95155,0,0,1,.79883-.91058c.50836-.01679.74853.51391.79321.94409a2.92213,2.92213,0,0,1-.05023.91052,2.10436,2.10436,0,0,1,.87146-.43573,1.07884,1.07884,0,0,1,.73736.028.5923.5923,0,0,1,.31842.62005,1.8568,1.8568,0,0,1-.94964,1.28485,10.07609,10.07609,0,0,1-.94409.49158l-1.03907.50281a.24792.24792,0,0,1-.05584.01117.17058.17058,0,0,1-.0503.07263,9.331,9.331,0,0,0-.72619,5.40753.15938.15938,0,0,1-.01679.10614c.324.3631.65363.72058.98877,1.067a.143.143,0,0,1,.11176.11169c.162.16205.31842.32965.486.486a33.33073,33.33073,0,0,0,2.7038,2.39093c.28912.23.58746.44885.883.67108-.03308.11633-.06677.2326-.10412.34893-.16077-.12054-.32318-.2387-.48279-.36084a35.6479,35.6479,0,0,1-2.76526-2.34625c-.34076-.324-.6759-.65918-1.00549-.99994a15.777,15.777,0,0,1-3.84339-1.49713C21.79565,67.22949,21.008,66.64294,20.14771,66.27429Z"/><path d="M90.90741,19.2428a9.777,9.777,0,0,1,3.66266,2.36566,6.73038,6.73038,0,0,1,1.77386,3.5318,6.60218,6.60218,0,0,1,.52961.67755c.39129.56793.717,1.17749,1.09826,1.75281.22449.34552.46826.67767.72107,1.00287a1.14286,1.14286,0,0,1-.12543.3891c-.275-.34443-.54071-.69611-.7854-1.0625-.50848-.75464-.93756-1.638-1.53149-2.36139a.09032.09032,0,0,1-.045.00183c-.01007.00738-.01526.01727-.03028.022-1.2323.70123-2.63318-.01923-3.62066-.82092a7.68664,7.68664,0,0,1-2.17774-2.92322,7.51643,7.51643,0,0,1-.50592-1.76648.91544.91544,0,0,1,.155-.84473C90.28424,18.9762,90.63409,19.13879,90.90741,19.2428Z"/><path d="M24.44269,40.20911a9.77642,9.77642,0,0,1,3.6626,2.3656,6.73063,6.73063,0,0,1,1.77386,3.53186,6.57689,6.57689,0,0,1,.5296.67749c.39136.568.7171,1.17749,1.09833,1.75287.22443.34546.46826.67767.721,1.0028a1.142,1.142,0,0,1-.12537.3891c-.275-.34436-.54077-.696-.78546-1.0625-.50848-.75464-.93756-1.63794-1.53149-2.36133a.09011.09011,0,0,1-.045.00177c-.01007.00739-.01519.01728-.03027.0221-1.23224.70123-2.63318-.01923-3.62067-.821a7.68642,7.68642,0,0,1-2.17773-2.92322,7.51609,7.51609,0,0,1-.50592-1.76648.91563.91563,0,0,1,.155-.84473C23.81946,39.94244,24.16937,40.105,24.44269,40.20911Z"/><path d="M19.803,3.59387a7.68557,7.68557,0,0,1-2.17774,2.92322c-.98748.80176-2.38836,1.52222-3.62066.821-.015-.00476-.0202-.01471-.03028-.022a.09021.09021,0,0,1-.045-.00183c-.59393.72339-1.023,1.60675-1.53149,2.36133-.24469.36645-.51038.71814-.7854,1.0625a1.14057,1.14057,0,0,1-.12537-.3891c.25275-.32514.49652-.65735.721-1.00281.38122-.57538.707-1.18488,1.09827-1.75287a6.6,6.6,0,0,1,.5296-.67749A6.73023,6.73023,0,0,1,15.6098,3.384a9.77623,9.77623,0,0,1,3.66266-2.36566c.27332-.10406.62317-.2666.88141-.03558a.91533.91533,0,0,1,.155.84466A7.51643,7.51643,0,0,1,19.803,3.59387Z"/><path d="M80.75256,1.13977l-.13867.27863a21.18281,21.18281,0,0,1-2.56817,3.7417.14454.14454,0,0,1-.05536.04058c-.24433,1.00574-.533,2.00617-.86365,2.98822A37.92885,37.92885,0,0,1,75.04834,13.15c.48889-.3136.96564-.64795,1.41718-1.00561a15.1731,15.1731,0,0,0,1.56408-1.40271c.50958-.51508.96894-1.07654,1.48743-1.582a6.92255,6.92255,0,0,1,.68317-.59009,7.065,7.065,0,0,1,2.54486-3.27673A10.26246,10.26246,0,0,1,86.998,3.60107c.30261-.05157.696-.14788.915.14252a.96086.96086,0,0,1-.012.90143,7.88838,7.88838,0,0,1-.88013,1.71643,8.069,8.069,0,0,1-2.837,2.56787c-1.18.62494-2.76923,1.08215-3.89576.10944-.01452-.00794-.01782-.01923-.02667-.02881a.0948.0948,0,0,1-.046-.011c-.75866.62427-1.38019,1.44678-2.05725,2.12061a16.56317,16.56317,0,0,1-3.43353,2.63794c-.23206.44024-.47132.87652-.71955,1.3031a37.42941,37.42941,0,0,1-2.09759,3.17694c-.12494.17-.25391.33679-.38055.50549-.07178-.10626-.1399-.21356-.20746-.321.2326-.31079.46893-.619.69275-.93573a34.98977,34.98977,0,0,0,2.02252-3.20392c.12286-.20679.23132-.42169.347-.63257a.15.15,0,0,1,.07978-.14539c.236-.44757.46313-.90466.683-1.36578a.16708.16708,0,0,1-.0481-.10205,9.79485,9.79485,0,0,0-2.32049-5.23639.17952.17952,0,0,1-.072-.05841.26285.26285,0,0,1-.05957.00513q-.59748-.10071-1.19489-.20148a10.57973,10.57973,0,0,1-1.09588-.218A1.94918,1.94918,0,0,1,69.019,5.3114a.62173.62173,0,0,1,.13874-.71844,1.13221,1.13221,0,0,1,.73492-.24475,2.2078,2.2078,0,0,1,1.00623.1831,3.06848,3.06848,0,0,1-.31812-.90289c-.08136-.44666.00482-1.05207.5221-1.18451a.999.999,0,0,1,1.07257.683,3.29282,3.29282,0,0,1,.13061.32227,1.69883,1.69883,0,0,1,.59284-.60651,1.09588,1.09588,0,0,1,1.16534.1001,1.06115,1.06115,0,0,1,.15454.13208,1.27328,1.27328,0,0,1,.33106,1.05188c-.12989,1.0213-1.14844,1.55035-1.48194,2.46a10.19513,10.19513,0,0,1,2.325,5.02124A36.62758,36.62758,0,0,0,77.03748,7.317c.22241-.72455.43035-1.4571.6109-2.2a2.70549,2.70549,0,0,0-.95282-1.48755c-.38208-.34668-.805-.645-1.183-.9989a3.89861,3.89861,0,0,1-.822-1.12256,4.09945,4.09945,0,0,1-2.4-1.25507C72.2215.1745,72.16858.08453,72.10767,0h3.10907a2.69277,2.69277,0,0,1-.2309,1.30591,3.48119,3.48119,0,0,0,.43878.70892c.70941.86212,1.8949,1.40839,2.38288,2.4328A35.4398,35.4398,0,0,0,78.51874,0h.3623c-.02191.2254-.05432.53253-.07538.70551a37.22274,37.22274,0,0,1-.63409,3.73376A18.12557,18.12557,0,0,0,80.7027.40295c.05823-.13147.10064-.26934.15368-.40295H82.5932l-.048.01855A4.252,4.252,0,0,0,80.75256,1.13977Z"/><path d="M34.09119,97.18774a.1429.1429,0,0,1,.08715-.13177c.2591-.40637.51056-.82257.75544-1.24316a.15947.15947,0,0,1-.03772-.10059,9.33063,9.33063,0,0,0-1.79291-5.15308.17015.17015,0,0,1-.06378-.06115.24759.24759,0,0,1-.057.00024q-.55929-.14237-1.11859-.28485a10.06977,10.06977,0,0,1-1.02332-.29285,1.85679,1.85679,0,0,1-1.18743-1.069.59235.59235,0,0,1,.188-.6712,1.07873,1.07873,0,0,1,.71692-.17487,2.1049,2.1049,0,0,1,.941.25263,2.92136,2.92136,0,0,1-.23132-.88208c-.04224-.43042.087-.99842.58838-1.08362a.95148.95148,0,0,1,.96478.73242,3.12907,3.12907,0,0,1,.09882.31622,1.61789,1.61789,0,0,1,.61035-.52941,1.04392,1.04392,0,0,1,1.09851.18634,1.01675,1.01675,0,0,1,.13635.13745A1.213,1.213,0,0,1,34.9967,88.16c-.2033.95948-1.21173,1.382-1.59961,2.21942a9.71282,9.71282,0,0,1,1.81415,4.94916,34.90858,34.90858,0,0,0,1.89728-3.94494c.26794-.67048.52271-1.34961.75226-2.04071a2.57667,2.57667,0,0,0-.78809-1.48688c-.33557-.35913-.71368-.67536-1.04492-1.041a3.71489,3.71489,0,0,1-.69244-1.13012,3.9056,3.9056,0,0,1-2.18018-1.37946,3.16913,3.16913,0,0,1-.60144-2.22058,2.18862,2.18862,0,0,1,.04913-.31787,1.47508,1.47508,0,0,1,.663-1.05329.78777.78777,0,0,1,.23852-.08862.96568.96568,0,0,1,.85016.28259,5.732,5.732,0,0,1,.82917,1.07373,5.078,5.078,0,0,1,.63171,1.2793,2.85261,2.85261,0,0,1-.1839,2.25537,3.31224,3.31224,0,0,0,.361.7074c.606.87408,1.68872,1.48553,2.07172,2.49634a33.70628,33.70628,0,0,0,1.05341-4.30866,9.9202,9.9202,0,0,0-1.429-1.49853,7.09285,7.09285,0,0,1-1.23041-1.39087,5.03412,5.03412,0,0,1-.51794-1.33679,7.1264,7.1264,0,0,1-2.01728-.63733,3.257,3.257,0,0,1-.58331-.39978,3.68077,3.68077,0,0,1-1.11456-2.58332,1.00835,1.00835,0,0,1,.29358-.85241.78934.78934,0,0,1,.28747-.15564,2.28771,2.28771,0,0,1,1.30414.10443,3.66047,3.66047,0,0,1,2.01007,1.57953,2.85353,2.85353,0,0,1,.34864.89807,3.57239,3.57239,0,0,1-.19825,1.96185c.03778.12915.0755.25824.11219.3819a3.4857,3.4857,0,0,0,.52691,1.1012,7.57374,7.57374,0,0,0,.81641.89953,16.006,16.006,0,0,1,1.46411,1.47437,40.72606,40.72606,0,0,0,.41687-7.06372,2.86857,2.86857,0,0,1-1.54242-1.07636,4.021,4.021,0,0,1-.49762-.90192,3.1312,3.1312,0,0,1-.25909-.96191,1.03261,1.03261,0,0,1,.27514-.803.70223.70223,0,0,1,.752-.17065,1.05924,1.05924,0,0,1,.52557.48,1.7467,1.7467,0,0,1,.4433-.92859,1.20292,1.20292,0,0,1,1.48913-.21839A1.2426,1.2426,0,0,1,41.294,73.425a1.62683,1.62683,0,0,1,1.02093-.30536,1.57446,1.57446,0,0,1,1.25879.832,1.1894,1.1894,0,0,1,.14032.8551,1.32069,1.32069,0,0,1-.44446.6438A8.50156,8.50156,0,0,1,39.946,76.9328c.00537.24976.01191.505.01178.75592a39.23522,39.23522,0,0,1-.48437,6.64984c-.01056.08765-.11682.65668-.1684.90662a35.42744,35.42744,0,0,1-.89441,3.49518,17.268,17.268,0,0,0,2.71912-3.63379,11.00442,11.00442,0,0,0,.86176-2.06305,5.20076,5.20076,0,0,1,.83166-1.903,3.323,3.323,0,0,1,2.00208-1.00158,1.52741,1.52741,0,0,1,1.72448.57171,2.25564,2.25564,0,0,1-.21765,2.03418A3.4875,3.4875,0,0,1,44.873,84.2a11.0956,11.0956,0,0,1-1.96387.68592,4.05052,4.05052,0,0,0-1.7898.92407q-.0768.1267-.15344.25366a20.17835,20.17835,0,0,1-2.7312,3.35113.137.137,0,0,1-.05572.03418c-.31073.93573-.66315,1.86292-1.054,2.76935a36.13154,36.13154,0,0,1-2.36163,4.54718c.48864-.2594.96746-.53949,1.42418-.84369a14.44681,14.44681,0,0,0,1.59474-1.20922c.52411-.4491,1.00427-.94617,1.53607-1.38538a6.589,6.589,0,0,1,.69476-.50671,6.73059,6.73059,0,0,1,2.67267-2.91163A9.777,9.777,0,0,1,46.8559,88.6358c.29132-.02527.67236-.08587.85754.207a.91551.91551,0,0,1-.082.85492,7.51417,7.51417,0,0,1-.97,1.56055A7.68576,7.68576,0,0,1,43.76685,93.474c-1.16919.50085-2.71381.81048-3.7071-.20123-.01318-.00867-.01544-.01966-.02313-.02948a.09007.09007,0,0,1-.04278-.014c-.76917.53326-1.42365,1.26544-2.11921,1.85211a15.77631,15.77631,0,0,1-3.4663,2.23553c-.25483.39978-.51612.79523-.78522,1.18079Q33.08156,99.267,32.49976,100h-.44538c.58112-.7262,1.14154-1.46881,1.65784-2.23883C33.84509,97.5744,33.96484,97.37891,34.09119,97.18774Z"/><path d="M31.20721,54.21057a.76677.76677,0,0,1-.17065-.30084.9393.9393,0,0,1,.559-1.01868,1.57567,1.57567,0,0,1,1.134-.12573,1.08193,1.08193,0,0,1,.05329-.27765.93491.93491,0,0,1,1.25537-.57013,1.81146,1.81146,0,0,1,1.068,1.20166,4.03513,4.03513,0,0,1,.06384,2.009,7.07129,7.07129,0,0,1,2.69959,1.81,4.38165,4.38165,0,0,1,1.05762,2.932,3.72352,3.72352,0,0,1-.03614.441c.57319-.89545,1.13166-1.79914,1.67341-2.71857l.01641-.02924a3.75178,3.75178,0,0,0,.29859-2.63189c-.05683-.27539-.13379-.5492-.2107-.823a2.47,2.47,0,0,1-1.87622-1.508,3.60555,3.60555,0,0,1-.00061-2.80627,5.47512,5.47512,0,0,1,.72461-1.2909.78482.78482,0,0,1,.58484-.35717.88983.88983,0,0,1,.5553.20916,3.03491,3.03491,0,0,1,.84967,1.11121,4.27629,4.27629,0,0,1,.41779,1.35565,4.21617,4.21617,0,0,1-.92829,3.19446,6.37681,6.37681,0,0,1,.31836,2.22876c-.00323.01733-.00171.03741-.00506.05469a51.74091,51.74091,0,0,0,4.32159-9.70746c.15021-.473.29553-.94879.42627-1.43274a3.19741,3.19741,0,0,0-1.57587-1.5636,5.686,5.686,0,0,0-2.5578-.48767c-.48022-.00049-.95941.03156-1.43652.07129A5.44145,5.44145,0,0,1,37.25159,45.611a2.35084,2.35084,0,0,1-1.80127-.40887,1.37233,1.37233,0,0,1-.43848-1.70679,1.03467,1.03467,0,0,1,.57623-.49011.30213.30213,0,0,1,.06293-.00952,2.71213,2.71213,0,0,1-.6319-.54053.8034.8034,0,0,1-.17846-.50372.74362.74362,0,0,1,.08764-.316,1.14737,1.14737,0,0,1,.75763-.51642,1.96716,1.96716,0,0,1,.855.00592,1.40385,1.40385,0,0,1-.1441-.177.61941.61941,0,0,1,.0221-.82678.93751.93751,0,0,1,.92468-.14081,6.032,6.032,0,0,1,2.08423,1.0802,2.33285,2.33285,0,0,1,1.11047,1.77649c1.76727-.13544,3.72668-.15668,5.09753,1.14447a3.28172,3.28172,0,0,1,.55469.68939c.20264-.78314.38086-1.58.53137-2.37311-.00915-.01794-.01342-.0332-.02258-.05115a4.6551,4.6551,0,0,0-2.04144-2.65142c-.67243-.47986-1.3982-.88727-2.0705-1.36719a1.20191,1.20191,0,0,1-1.46521.40753,8.82168,8.82168,0,0,1-.88128-.34729,8.95064,8.95064,0,0,1-.91333-.46143,3.94319,3.94319,0,0,1-1.67133-1.81585,2.73446,2.73446,0,0,1-.18091-.819,3.36679,3.36679,0,0,1,.48023-1.72278,2.16666,2.16666,0,0,1,.47412-.70764.64106.64106,0,0,1,.71478-.04077,2.09292,2.09292,0,0,1,.56189.53967c.21533.25537.42523.52057.65912.75433a9.60785,9.60785,0,0,0,1.61688,1.12543A2.66438,2.66438,0,0,1,43.179,36.58069a1.44737,1.44737,0,0,1-.35944,1.39337c.11847.08575.23969.16663.36084.24744a13.10736,13.10736,0,0,1,2.99487,2.27685,4.41711,4.41711,0,0,1,.67292,1.09522,29.22017,29.22017,0,0,0,.40026-6.00855c-.01495-.41846-.04516-.83252-.08026-1.24945a.82444.82444,0,0,1-.52044-.09991.84872.84872,0,0,1-.42707-.84833c-.03961-.0094-.084-.02155-.12359-.03095a8.05016,8.05016,0,0,1-1.26575-.51831,9.5387,9.5387,0,0,1-1.24585-.725,2.81876,2.81876,0,0,1-.81226-.7442,1.127,1.127,0,0,1-.1585-.97309,1.27931,1.27931,0,0,1,.72058-.73578,2.19431,2.19431,0,0,1,2.16992.59662,4.40068,4.40068,0,0,1,.71484.79206c-.00763-.10041-.00561-.19532-.00573-.29786a3.00951,3.00951,0,0,1,.80047-2.24774,1.12323,1.12323,0,0,1,1.75726.2818,2.96808,2.96808,0,0,1-.03179,2.17945c-.04889.13269-.1048.25506-.16065.37744a3.445,3.445,0,0,1,2.00494-.50171.89717.89717,0,0,1,.8136.55914,1.22285,1.22285,0,0,1-.25012.99347,3.035,3.035,0,0,1-1.80865,1.259,2.91565,2.91565,0,0,1-1.43665-.03125.78292.78292,0,0,1-.09894.29035.82426.82426,0,0,1-.30243.31067,28.63629,28.63629,0,0,1-.06085,5.55206,5.24592,5.24592,0,0,1,1.42731-1.28723,5.462,5.462,0,0,1,1.082-.501,4.49871,4.49871,0,0,1,1.66833-2.1961,4.06688,4.06688,0,0,1,2.73987-.44153,2.10638,2.10638,0,0,1,1.21527.52838c.34174.384.14045.87964-.08319,1.2666a3.34216,3.34216,0,0,1-2.23828,1.61359,6.5299,6.5299,0,0,1-3.19769-.44324,5.09433,5.09433,0,0,0-1.83606,1.1026,4.24776,4.24776,0,0,0-.87268,1.14374,34.19206,34.19206,0,0,1-.70209,3.693,12.54162,12.54162,0,0,1,2.308-.56225,6.07611,6.07611,0,0,1,1.72785.06018,4.09161,4.09161,0,0,1,2.84332-1.50458,7.93556,7.93556,0,0,1,1.86749.27948,18.99129,18.99129,0,0,1,2.008.53137c.53632.18579,1.2699.431,1.35052,1.09766a1.1505,1.1505,0,0,1-.28839.79907,3.02991,3.02991,0,0,1-.57342.58783,4.06782,4.06782,0,0,1-3.30957.69189,8.96307,8.96307,0,0,1-3.85773-2.1206.17722.17722,0,0,1-.06885-.02582,5.69,5.69,0,0,0-1.96246-.01892,15.88648,15.88648,0,0,0-2.13812.56793c-.03424.14087-.07068.27423-.10981.41242a2.07024,2.07024,0,0,1,1.761,1.03973,4.80052,4.80052,0,0,1,.515,2.46075,12.26506,12.26506,0,0,0,.06127,1.48859,4.2036,4.2036,0,0,1,2.87275,2.52869.73059.73059,0,0,1,.03393.80694c-.197.24823-.49078.16663-.73211.03748a4.64829,4.64829,0,0,1-.67054-.4148,1.73484,1.73484,0,0,1-.54492,1.142.92807.92807,0,0,1-1.11731.039,1.26842,1.26842,0,0,1-.2854-.25622,1.1662,1.1662,0,0,1-.91138-.03113,2.0387,2.0387,0,0,1-.96734-.6391.95911.95911,0,0,1,.04217-1.091,6.35253,6.35253,0,0,1,1.00342-.89734,6.01927,6.01927,0,0,0,.9408-1.20807c-.08832-.76709-.02851-1.547-.10157-2.31836a2.81306,2.81306,0,0,0-.90441-2.00671,1.52146,1.52146,0,0,0-1.0918-.33741,49.70025,49.70025,0,0,1-4.37634,10.43268c-.8877,1.61572-1.84369,3.19324-2.83588,4.744a7.32813,7.32813,0,0,1,4.734-.19354,4.62766,4.62766,0,0,1,.47363-1.22034,4.1005,4.1005,0,0,1,.81323-1.20917,1.21341,1.21341,0,0,1,1.10919-.287.98439.98439,0,0,1,.646.92634,1.71407,1.71407,0,0,1-.40741,1.09094,1.80114,1.80114,0,0,1,1.147.125,1.04118,1.04118,0,0,1,.595,1.154,1.26839,1.26839,0,0,1-1.08411.85846,2.08676,2.08676,0,0,1-.4704.005c.43561.251.86017.57892.82471,1.11005-.04138.65576-.79981.87708-1.33954.70862a3.178,3.178,0,0,1-.83905-.44538,4.2981,4.2981,0,0,1-.77936-.70007,2.615,2.615,0,0,1-.64178-1.744,6.96805,6.96805,0,0,0-5.11048.32807c-.581.89746-1.1748,1.78607-1.77349,2.67144a1.89615,1.89615,0,0,1-.20832-.30865c.44849-.66309.901-1.32385,1.33881-1.99341a.15962.15962,0,0,1,.02209-.09649A3.467,3.467,0,0,0,38.404,58.577a4.57875,4.57875,0,0,0-1.96765-2.41779,9.445,9.445,0,0,0-1.4574-.74762,3.48867,3.48867,0,0,1-2.14984.76c-.74066.00708-1.85132-.25122-2.01031-1.10919A.78485.78485,0,0,1,31.20721,54.21057Z"/><path d="M98.32941,60.62988a.9929.9929,0,0,1,.69568-.8164A2.55113,2.55113,0,0,1,100,59.70868v2.1496a7.92161,7.92161,0,0,1-.966-.35193C98.67761,61.343,98.30322,61.06134,98.32941,60.62988Z"/><path d="M99.75134,61.97583A.75791.75791,0,0,1,100,61.863v1.8692a1.08272,1.08272,0,0,1-.5567-.3454A1.039,1.039,0,0,1,99.75134,61.97583Z"/><path d="M99.613,82.762a2.54183,2.54183,0,0,0-1.59748,1.18482c-.3974.57635-.69372,1.21808-1.10132,1.78436a5.43674,5.43674,0,0,0,.21015,1.36749,5.74163,5.74163,0,0,1,.39636,1.15.86658.86658,0,0,1-.44726.87927,1.84162,1.84162,0,0,1-1.04468.07812,1.05314,1.05314,0,0,1-.73279-.37689,1.14541,1.14541,0,0,1-.338.07648.83875.83875,0,0,1-.86438-.523,1.56773,1.56773,0,0,1,.07312-1.14093,4.19915,4.19915,0,0,1-.71173.03186c-.24726-.00439-.515-.06946-.561-.352-.04614-.28253.17053-.47992.3822-.6217a3.79829,3.79829,0,0,1,3.38025-.72962,11.07152,11.07152,0,0,0,.704-1.14746,4.33758,4.33758,0,0,1,1.49018-1.71454A2.00952,2.00952,0,0,1,100,82.4624v.29444A1.59861,1.59861,0,0,0,99.613,82.762Z"/><path d="M97.79968,80.05054a.16151.16151,0,0,1-.06567-.01,8.09981,8.09981,0,0,1-3.97766-.02625A3.6756,3.6756,0,0,1,91.45,78.01068a2.73828,2.73828,0,0,1-.19348-.71637,1.03965,1.03965,0,0,1,.12445-.75744c.35724-.49042,1.04407-.36078,1.549-.27106a17.146,17.146,0,0,1,1.8183.46521,7.17322,7.17322,0,0,1,1.59644.60205,3.69736,3.69736,0,0,1,1.5805,2.43951,5.49041,5.49041,0,0,1,1.38971.71363A7.75047,7.75047,0,0,1,100,81.064v.41668c-.20746-.20135-.418-.39972-.64368-.58069A5.14038,5.14038,0,0,0,97.79968,80.05054Z"/><path d="M97.0401,72.44031c-.00592-.40381.05353-.88349.49237-1.03595a1.90377,1.90377,0,0,1,1.19153.11847,3.99883,3.99883,0,0,1,1.276.74792v3.30487a4.68222,4.68222,0,0,1-1.90472-.87634A3.02019,3.02019,0,0,1,97.0401,72.44031Z"/><path d="M95.77716,96.16235a2.363,2.363,0,0,1-1.27454,1.09327,3.884,3.884,0,0,1-.92327.209,2.87258,2.87258,0,0,1-.8581-.01819c-.50006-.10486-1.00091-.61352-.74469-1.14917.20594-.43457.68531-.50635,1.13959-.51245a1.88738,1.88738,0,0,1-.369-.21118A1.14629,1.14629,0,0,1,92.27,94.41888a.94085.94085,0,0,1,.97778-.64831,1.62717,1.62717,0,0,1,.96.40662,1.5485,1.5485,0,0,1,.15912-1.04017.88935.88935,0,0,1,.91773-.44629,1.09647,1.09647,0,0,1,.74866.715,3.70493,3.70493,0,0,1,.109,1.3122,4.18206,4.18206,0,0,1-.16388,1.17144,6.62152,6.62152,0,0,1,3.6496,2.23786c-.09973-1.66046-.15906-3.32611-.14776-4.99182A49.29393,49.29393,0,0,1,100,86.28961v2.5033c-.15094,1.66443-.21674,3.33673-.21027,5.008.005-.01513.01508-.03027.02008-.04541A3.77976,3.77976,0,0,1,100,93.4101v.7243a2.81728,2.81728,0,0,0-.19214.984l.00012.03027c.02234.96405.06494,1.923.12268,2.882.021-.05072.04725-.10077.06934-.15216V100h-.23309c-.03357-.44263-.07331-.8847-.1023-1.3277A6.29641,6.29641,0,0,0,95.77716,96.16235Z"/><path d="M7.41083,2.203c-.90192.69361-1.82923,1.352-2.721,2.06067a11.31121,11.31121,0,0,0-3.79517,4.693.02632.02632,0,0,1-.01007.0202c.114,1.26172.21277,2.51837.29132,3.78009a7.76552,7.76552,0,0,1,.33625-.88416,8.04056,8.04056,0,0,1,1.39843-2.103,5.04747,5.04747,0,0,1,.38507-1.5354,2.98985,2.98985,0,0,1,.96167-1.09253A4.36005,4.36005,0,0,1,7.0022,6.66614a1.45657,1.45657,0,0,1,1.17224.52228A1.17362,1.17362,0,0,1,8.16205,8.3999,3.20373,3.20373,0,0,1,6.111,9.8634a8.70469,8.70469,0,0,1-2.983.12293,7.56091,7.56091,0,0,0-1.85919,3.66382.23074.23074,0,0,1-.03516.07074c.07892,1.40814.10279,3.01324.12622,4.42657.00586.34833.24286,2.4375.25379,2.79083.06061.03516-.36749.44-.29749.16217l-.20654-2.04382A18.72391,18.72391,0,0,0,.13037,16.848C.09021,16.77289.04187,16.7041,0,16.63019v-.62366a12.79461,12.79461,0,0,1,1.0874,2.15674c-.006-.419-.012-.83789-.018-1.25177-.05176-2.756-.25995-5.5014-.51361-8.24683A7.21392,7.21392,0,0,0,0,7.74487V7.24561a8.293,8.293,0,0,1,.48846.67218C.39026,6.91351.292,5.90417.19379,4.8999.12622,4.205.0636,3.50977,0,2.81458V0H.07123c.157,2.06018.35638,4.11969.55456,6.171Q.7342,7.24588.82758,8.3208l.06024-.13641a11.38114,11.38114,0,0,1,3.05548-3.702,4.14809,4.14809,0,0,1-.25025-1.26636,8.17547,8.17547,0,0,0-.976-.72967,2.53184,2.53184,0,0,1-.67865-1.003A2.50687,2.50687,0,0,1,1.9895,0H4.60394a2.5704,2.5704,0,0,1,.22577,1.41644A3.1991,3.1991,0,0,1,3.99579,3.175a4.308,4.308,0,0,0,.1994,1.09991c.25189-.20752.50885-.41.76587-.60748C5.85791,2.96881,6.79028,2.31549,7.677,1.60675,8.315,1.09851,8.92505.557,9.519,0h.46289c-.02612.02515-.05108.05219-.07727.07721A32.21209,32.21209,0,0,1,7.41083,2.203Z"/><path d="M30.98206,1.79968c-.05988-.1065-.11615-.21374-.17182-.3211.24512-.2768.49365-.55091.731-.83411.17676-.21027.34155-.43.51318-.64447h.44538q-.54246.68693-1.11683,1.34955C31.251,1.50116,31.11542,1.64941,30.98206,1.79968Z"/><path d="M100,0V2.81458Q99.87138,1.40833,99.76691,0Z"/><path d="M99.00134,6.59869a13.5171,13.5171,0,0,1-2.12-.02038,6.50782,6.50782,0,0,1-1.96454-.39423,3.5,3.5,0,0,1-1.82257-2.35315c-.15247-.45392-.40625-1.07422-.02356-1.47381a1.682,1.682,0,0,1,1.46326-.24567,9.941,9.941,0,0,1,1.81842.551,6.5377,6.5377,0,0,1,1.57666.77374,2.94506,2.94506,0,0,1,1.00732,1.21417,4.72794,4.72794,0,0,1,.2663,1.6803.08859.08859,0,0,1,.03051.06555A7.87936,7.87936,0,0,1,100,7.24561v.49926a7.499,7.499,0,0,0-.61914-.76849Q99.19867,6.78,99.00134,6.59869Z"/><path d="M97.62561,14.18353a13.38916,13.38916,0,0,1-2.643-1.33667,2.75037,2.75037,0,0,0-.598,1.16236,1.81764,1.81764,0,0,1-.72454,1.01623.92609.92609,0,0,1-1.06012-.053.95009.95009,0,0,1-.19428-1.05963,1.28,1.28,0,0,1,.27179-.34387c-.50964.0921-1.24152.09375-1.54047-.3902-.32421-.514.19434-1.08063.62287-1.31885a2.09763,2.09763,0,0,1,.45892-.1878,1.97677,1.97677,0,0,1-.7998-1.00769,1.11652,1.11652,0,0,1,.31482-1.36359,1.61213,1.61213,0,0,1,.83264-.12811,2.53054,2.53054,0,0,1,.88861.12915,1.99389,1.99389,0,0,1,1.07812,1.28473c.21344.61529.35627,1.26111.5243,1.89166.00506.01514.01013.02521.01525.04041a5.08328,5.08328,0,0,0,1.42029.83459,15.10261,15.10261,0,0,1,1.59168.72827,5.21655,5.21655,0,0,1,1.41119,1.2284A7.79389,7.79389,0,0,1,100,16.00653v.62366A5.76921,5.76921,0,0,0,97.62561,14.18353Z"/><text x="0" y="115" fill="#000000" font-size="5px" font-weight="bold" font-family="'Helvetica Neue', Helvetica, Arial-Unicode, Arial, Sans-serif">Created by Kristina Margaryan</text><text x="0" y="120" fill="#000000" font-size="5px" font-weight="bold" font-family="'Helvetica Neue', Helvetica, Arial-Unicode, Arial, Sans-serif">from the Noun Project</text></svg>